<svg width="194" height="171" viewBox="0 0 194 171" fill="none" xmlns="http://www.w3.org/2000/svg">
<g id="Group">
<g id="Group_2">
<g id="Vector" filter="url(#filter0_f_20_10579)">
<path d="M173.969 108.26L93.9023 150.298L20.1262 111.819L100.193 69.7812L173.969 108.26Z" fill="#185BCC" fill-opacity="0.5"/>
</g>
<path id="Vector_2" d="M188.53 75.541V92.6056L96.8446 141.799L96.8445 123.881L188.53 75.541Z" fill="#E7E6F1"/>
<path id="Vector_3" d="M96.8445 123.88V141.8L12.3738 98.1086V79.6328L96.8445 123.88Z" fill="#B5B2CF"/>
<path id="Vector_4" d="M188.541 75.5399L96.8559 123.88L12.3738 79.6331L104.059 31.293L188.541 75.5399Z" fill="#F4F4FB"/>
</g>
<g id="Group_3">
<g id="Group_4">
<path id="Vector_5" d="M146.455 60.1175C146.455 61.468 145.384 62.0197 144.095 61.3362L125.767 51.7344C125.767 51.8908 125.722 51.8003 144.167 61.4597C144.848 61.7891 145.701 62.0526 146.89 61.4597C147.381 61.1962 147.689 60.6527 147.689 59.8704C147.226 60.1175 146.673 60.2245 146.464 60.1175H146.455Z" fill="#CED4F1"/>
<path id="Vector_6" d="M125.84 51.864C124.278 50.9829 123.334 49.2865 123.334 47.9277C123.334 47.9771 123.361 48.0183 123.416 48.0513C123.416 49.4018 124.469 51.0652 125.767 51.7405C125.767 51.7981 125.794 51.8393 125.84 51.864Z" fill="#CED4F1"/>
<path id="Vector_7" d="M123.489 2.65377C123.489 2.65377 123.47 2.6126 123.47 2.58789C123.325 48.0525 123.271 47.9784 123.416 48.0608L123.561 2.71141C123.561 2.71141 123.516 2.67847 123.498 2.662L123.489 2.65377Z" fill="#F4F5FA"/>
<path id="Vector_8" d="M123.47 2.58094C123.489 2.12802 123.525 1.17278 124.814 0.464581C125.313 0.201066 126.003 0.234005 126.757 0.637513C126.294 0.884559 125.912 1.26336 125.912 1.4857C124.614 0.810445 123.552 1.36218 123.552 2.70446C123.498 2.67152 123.47 2.63035 123.47 2.58094Z" fill="#CED4F1"/>
<path id="Vector_9" d="M146.772 14.8088C146.718 14.8088 146.636 14.784 146.591 14.7676L146.445 60.1169C146.445 60.1169 146.463 60.1499 146.627 60.1581C146.718 60.1581 146.817 60.1581 146.926 60.1334L147.072 14.784C146.963 14.8005 146.854 14.8088 146.772 14.8088Z" fill="#CED4F1"/>
<path id="Vector_10" d="M144.24 11.0796L125.922 1.48601C125.922 1.42013 125.958 1.34602 126.012 1.26367L144.34 10.8573C144.285 10.9396 144.249 11.022 144.249 11.0796H144.24Z" fill="#CED4F1"/>
<g id="Group_5">
<path id="Vector_11" d="M146.591 14.7686C146.591 13.4181 145.538 11.7547 144.24 11.0794C138.13 7.8843 132.021 4.68094 125.912 1.48581C124.614 0.810556 123.552 1.36229 123.552 2.70457L146.591 14.7686Z" fill="#CED4F1"/>
<path id="Vector_12" d="M123.552 2.70312C123.507 17.7811 123.461 32.9745 123.407 48.0525C123.407 49.403 124.46 51.0664 125.758 51.7417C131.867 54.945 137.976 58.1402 144.086 61.3435C145.384 62.0188 146.446 61.4753 146.446 60.1248C146.491 45.0468 146.536 29.8534 146.591 14.7754L123.552 2.71136V2.70312Z" fill="#185BCC"/>
</g>
<path id="Vector_13" d="M144.24 11.0787C144.24 10.8563 144.621 10.4775 145.084 10.2305C146.591 11.021 147.816 12.948 147.816 14.5208C147.353 14.7679 146.799 14.8749 146.591 14.7679C146.591 13.4174 145.538 11.7539 144.24 11.0787Z" fill="#CED4F1"/>
<path id="Vector_14" d="M125.141 0.307893C125.141 0.307893 125.068 0.340832 125.032 0.357302L124.823 0.47259C124.206 0.810219 123.815 1.22196 123.579 1.86428C123.498 2.1772 123.489 2.26779 123.47 2.58895C123.47 2.61365 123.47 2.63836 123.489 2.65483C123.525 1.23843 124.56 0.661992 126.003 1.2549C126.139 1.04903 126.43 0.810219 126.757 0.637287L126.965 0.521999C127.31 0.340832 127.601 0.283188 127.737 0.349067C127.074 0.0279077 126.257 -0.219138 125.132 0.299658L125.141 0.307893Z" fill="#EBEEFC"/>
<path id="Vector_15" d="M127.746 0.358383C127.61 0.292504 127.319 0.350148 126.974 0.531315L126.765 0.646603C126.439 0.819535 126.148 1.05835 126.012 1.26422L144.339 10.8578C144.476 10.652 144.766 10.4131 145.093 10.2402L145.302 10.1249C145.647 9.94375 145.937 9.88611 146.073 9.95199L127.746 0.358383Z" fill="#F4F5FA"/>
<path id="Vector_16" d="M147.852 11.6466C147.162 10.5596 146.4 10.1313 146.073 9.95018C145.937 9.8843 145.647 9.94194 145.302 10.1231L145.093 10.2384C144.766 10.4113 144.476 10.6584 144.339 10.856C145.819 11.4983 146.999 13.063 147.081 14.4382C147.081 14.5123 147.081 14.7923 147.081 14.7923C147.081 14.7923 147.162 14.8087 147.834 14.5288L148.043 14.4135C148.388 14.2323 148.588 14.0264 148.588 13.87C148.579 13.557 148.542 12.7171 147.861 11.6466H147.852Z" fill="#EBEEFC"/>
<path id="Vector_17" d="M148.034 14.4146C148.034 14.4146 147.308 14.7522 147.072 14.7934L146.927 60.1427C147.153 60.1016 147.426 60.011 147.68 59.8792L147.889 59.7639C148.234 59.5828 148.433 59.3769 148.433 59.2369L148.579 13.8711C148.579 14.0111 148.379 14.2334 148.034 14.4146Z" fill="#BFC7ED"/>
<path id="Vector_18" d="M147.889 59.7614L147.68 59.8767C147.435 60.0085 147.163 60.099 146.927 60.1402C146.799 61.6307 145.592 62.1907 144.122 61.4413C144.194 61.5072 144.63 61.6637 144.73 61.7048L144.92 61.7542C145.647 61.9025 146.228 61.7954 146.881 61.466L147.09 61.3507C148.379 60.6672 148.424 59.6296 148.433 59.2344C148.433 59.3744 148.234 59.5802 147.889 59.7614Z" fill="#BFC7ED"/>
<g id="Group_6">
<g id="Group_7">
<path id="Vector_19" d="M147.525 21.0818L147.335 20.983C147.262 20.9418 147.217 20.8594 147.217 20.7441L147.407 20.843C147.407 20.9582 147.453 21.0406 147.525 21.0818Z" fill="#7C89C8"/>
<g id="Clip path group">
<mask id="mask0_20_10579" style="mask-type:luminance" maskUnits="userSpaceOnUse" x="147" y="20" width="1" height="2">
<g id="clippath">
<path id="Vector_20" d="M147.525 21.0837L147.334 20.9849C147.262 20.9437 147.216 20.8614 147.216 20.7461L147.407 20.8449C147.407 20.9602 147.452 21.0425 147.525 21.0837Z" fill="white"/>
</g>
</mask>
<g mask="url(#mask0_20_10579)">
<g id="Group_8">
<g id="Group_9">
<path id="Vector_21" d="M147.524 21.085L147.334 20.9864C147.334 20.9864 147.298 20.9617 147.28 20.9453L147.47 21.0439C147.47 21.0439 147.506 21.0768 147.524 21.085Z" fill="#7C89C8"/>
<path id="Vector_22" d="M147.47 21.0536L147.28 20.955C147.234 20.9139 147.216 20.84 147.216 20.7578L147.406 20.8564C147.406 20.9386 147.434 21.0125 147.47 21.0536Z" fill="#7C89C8"/>
</g>
</g>
</g>
</g>
</g>
<g id="Group_10">
<path id="Vector_23" d="M148.297 17.2738L148.487 17.3726C148.415 17.3314 148.306 17.3397 148.197 17.3973L148.006 17.2985C148.124 17.2408 148.224 17.2326 148.297 17.2738Z" fill="#7C89C8"/>
<g id="Clip path group_2">
<mask id="mask1_20_10579" style="mask-type:luminance" maskUnits="userSpaceOnUse" x="148" y="17" width="1" height="1">
<g id="clippath-1">
<path id="Vector_24" d="M148.297 17.2718L148.487 17.3706C148.415 17.3295 148.306 17.3377 148.197 17.3954L148.006 17.2965C148.124 17.2389 148.224 17.2307 148.297 17.2718Z" fill="white"/>
</g>
</mask>
<g mask="url(#mask1_20_10579)">
<g id="Group_11">
<g id="Group_12">
<path id="Vector_25" d="M148.197 17.3954L148.006 17.2965C148.124 17.2389 148.224 17.2307 148.297 17.2718L148.487 17.3706C148.415 17.3295 148.306 17.3377 148.197 17.3954Z" fill="#7C89C8"/>
</g>
</g>
</g>
</g>
</g>
<path id="Vector_26" d="M147.407 20.8393L147.208 20.7405V18.1465L147.398 18.2453L147.407 20.8393Z" fill="#7C89C8"/>
<path id="Vector_27" d="M147.807 17.6016L147.616 17.5027L148.007 17.2969L148.197 17.3957L147.807 17.6016Z" fill="#7C89C8"/>
<g id="Group_13">
<path id="Vector_28" d="M147.398 18.2431L147.208 18.1443C147.208 17.9055 147.389 17.6172 147.616 17.502L147.807 17.6008C147.58 17.7161 147.398 18.0125 147.398 18.2431Z" fill="#7C89C8"/>
<g id="Clip path group_3">
<mask id="mask2_20_10579" style="mask-type:luminance" maskUnits="userSpaceOnUse" x="147" y="17" width="1" height="2">
<g id="clippath-2">
<path id="Vector_29" d="M147.398 18.245L147.207 18.1462C147.207 17.9074 147.389 17.6192 147.616 17.5039L147.806 17.6027C147.579 17.718 147.398 18.0145 147.398 18.245Z" fill="white"/>
</g>
</mask>
<g mask="url(#mask2_20_10579)">
<g id="Group_14">
<g id="Group_15">
<path id="Vector_30" d="M147.398 18.2431L147.207 18.1443C147.207 17.9961 147.28 17.8232 147.389 17.6914L147.579 17.7902C147.471 17.922 147.389 18.0949 147.398 18.2431Z" fill="#7C89C8"/>
<path id="Vector_31" d="M147.579 17.7921L147.389 17.6933C147.452 17.6192 147.534 17.5451 147.616 17.5039L147.806 17.6027C147.725 17.6439 147.643 17.7098 147.579 17.7921Z" fill="#7C89C8"/>
</g>
</g>
</g>
</g>
</g>
<path id="Vector_32" d="M148.197 17.3955C148.424 17.2802 148.606 17.3708 148.606 17.6096V20.2036C148.606 20.4424 148.433 20.7306 148.206 20.8459L147.816 21.0517C147.589 21.167 147.407 21.0764 147.407 20.8376V18.2437C147.407 18.0048 147.589 17.7166 147.807 17.6013L148.197 17.3955Z" fill="#E3E5FA"/>
</g>
<g id="Group_16">
<g id="Group_17">
<path id="Vector_33" d="M147.525 23.9841L147.335 23.8853C147.262 23.8441 147.217 23.7618 147.217 23.6465L147.407 23.7453C147.407 23.8606 147.453 23.9429 147.525 23.9841Z" fill="#7C89C8"/>
<g id="Clip path group_4">
<mask id="mask3_20_10579" style="mask-type:luminance" maskUnits="userSpaceOnUse" x="147" y="23" width="1" height="1">
<g id="clippath-3">
<path id="Vector_34" d="M147.524 23.988L147.334 23.8892C147.261 23.848 147.216 23.7657 147.216 23.6504L147.406 23.7492C147.406 23.8645 147.452 23.9468 147.524 23.988Z" fill="white"/>
</g>
</mask>
<g mask="url(#mask3_20_10579)">
<g id="Group_18">
<g id="Group_19">
<path id="Vector_35" d="M147.524 23.9893L147.334 23.8907C147.334 23.8907 147.298 23.866 147.28 23.8496L147.47 23.9482C147.47 23.9482 147.506 23.9811 147.524 23.9893Z" fill="#7C89C8"/>
<path id="Vector_36" d="M147.469 23.9461L147.279 23.8476C147.234 23.8065 147.216 23.7325 147.216 23.6504L147.406 23.749C147.406 23.8311 147.433 23.9051 147.469 23.9461Z" fill="#7C89C8"/>
</g>
</g>
</g>
</g>
</g>
<g id="Group_20">
<path id="Vector_37" d="M148.297 21.555L148.487 21.6538C148.415 21.6127 148.306 21.6209 148.197 21.6786L148.006 21.5797C148.124 21.5221 148.224 21.5139 148.297 21.555Z" fill="#7C89C8"/>
<g id="Clip path group_5">
<mask id="mask4_20_10579" style="mask-type:luminance" maskUnits="userSpaceOnUse" x="148" y="21" width="1" height="1">
<g id="clippath-4">
<path id="Vector_38" d="M148.297 21.5609L148.487 21.6597C148.415 21.6185 148.306 21.6268 148.197 21.6844L148.006 21.5856C148.124 21.528 148.224 21.5197 148.297 21.5609Z" fill="white"/>
</g>
</mask>
<g mask="url(#mask4_20_10579)">
<g id="Group_21">
<g id="Group_22">
<path id="Vector_39" d="M148.197 21.6883L148.006 21.5895C148.124 21.5319 148.224 21.5236 148.297 21.5648L148.487 21.6636C148.415 21.6224 148.306 21.6307 148.197 21.6883Z" fill="#7C89C8"/>
</g>
</g>
</g>
</g>
</g>
<path id="Vector_40" d="M147.407 23.7449L147.208 23.6378V22.4355L147.398 22.5344L147.407 23.7449Z" fill="#7C89C8"/>
<path id="Vector_41" d="M147.807 21.8926L147.616 21.7855L148.007 21.5879L148.197 21.6867L147.807 21.8926Z" fill="#7C89C8"/>
<g id="Group_23">
<path id="Vector_42" d="M147.398 22.5341L147.208 22.4353C147.208 22.1965 147.389 21.9083 147.616 21.793L147.807 21.8918C147.58 22.0071 147.398 22.3035 147.398 22.5341Z" fill="#7C89C8"/>
<g id="Clip path group_6">
<mask id="mask5_20_10579" style="mask-type:luminance" maskUnits="userSpaceOnUse" x="147" y="21" width="1" height="2">
<g id="clippath-5">
<path id="Vector_43" d="M147.398 22.5341L147.207 22.4353C147.207 22.1965 147.389 21.9083 147.616 21.793L147.806 21.8918C147.579 22.0071 147.398 22.3035 147.398 22.5341Z" fill="white"/>
</g>
</mask>
<g mask="url(#mask5_20_10579)">
<g id="Group_24">
<g id="Group_25">
<path id="Vector_44" d="M147.398 22.5322L147.207 22.4334C147.207 22.2852 147.28 22.1122 147.389 21.9805L147.579 22.0793C147.47 22.211 147.389 22.384 147.398 22.5322Z" fill="#7C89C8"/>
<path id="Vector_45" d="M147.579 22.0812L147.388 21.9824C147.452 21.9083 147.534 21.8341 147.615 21.793L147.806 21.8918C147.724 21.933 147.643 21.9988 147.579 22.0812Z" fill="#7C89C8"/>
</g>
</g>
</g>
</g>
</g>
<path id="Vector_46" d="M148.197 21.6865C148.424 21.5712 148.606 21.6618 148.606 21.9006V23.1111C148.606 23.3499 148.433 23.6381 148.206 23.7534L147.816 23.9593C147.589 24.0746 147.407 23.984 147.407 23.7452V22.5347C147.407 22.2959 147.589 22.0076 147.807 21.8924L148.197 21.6865Z" fill="#E3E5FA"/>
</g>
<path id="Vector_47" d="M138.711 9.30737C138.711 9.76029 139.065 10.312 139.492 10.5344C139.928 10.7567 140.273 10.5755 140.273 10.1226C140.273 9.6697 139.918 9.11797 139.492 8.89563C139.056 8.67329 138.711 8.85445 138.711 9.30737Z" fill="#010958"/>
<path id="Vector_48" d="M140.935 10.444C140.935 10.7322 141.162 11.0781 141.435 11.2263C141.707 11.3663 141.934 11.251 141.934 10.9628C141.934 10.6746 141.707 10.3287 141.435 10.1805C141.162 10.0405 140.935 10.1558 140.935 10.444Z" fill="#010958"/>
<path id="Vector_49" d="M135.788 8.46924L134.218 7.64576C133.909 7.48106 133.655 7.08579 133.655 6.76463C133.655 6.44347 133.909 6.31171 134.218 6.46817L135.788 7.29166C136.097 7.45636 136.351 7.85163 136.351 8.17279C136.351 8.49395 136.097 8.62571 135.788 8.46924Z" fill="#010958"/>
<g id="Group_26">
<path id="Vector_50" d="M129.198 1.80055C129.198 1.80055 129.125 1.86643 129.071 1.89937C128.826 2.03113 128.426 2.03113 128.181 1.89937C128.127 1.87466 128.081 1.84172 128.054 1.80055C127.945 1.67703 127.991 1.5288 128.181 1.42998C128.681 1.16647 129.488 1.47116 129.198 1.80055Z" fill="#F4F5FA"/>
<path id="Vector_51" d="M129.198 1.80073C129.198 1.80073 129.126 1.86661 129.071 1.89955C128.826 2.03131 128.427 2.03131 128.182 1.89955C128.127 1.87484 128.082 1.8419 128.054 1.80073C128.082 1.76779 128.127 1.73485 128.182 1.71015C128.427 1.57839 128.826 1.57839 129.071 1.71015C129.126 1.73485 129.171 1.76779 129.198 1.80073Z" fill="#0B1B38"/>
</g>
<g id="Group_27">
<path id="Vector_52" d="M144.666 9.8525C144.666 9.8525 144.612 9.90191 144.566 9.92662C144.376 10.0254 144.067 10.0254 143.877 9.92662C143.831 9.90191 143.804 9.87721 143.777 9.8525C143.695 9.76192 143.722 9.6384 143.877 9.56428C144.267 9.35841 144.893 9.59722 144.666 9.8525Z" fill="#F4F5FA"/>
<path id="Vector_53" d="M144.666 9.85331C144.666 9.85331 144.612 9.90271 144.567 9.92742C144.376 10.0262 144.067 10.0262 143.877 9.92742C143.831 9.90271 143.804 9.87801 143.777 9.85331C143.804 9.8286 143.831 9.8039 143.877 9.77919C144.067 9.68037 144.376 9.68037 144.567 9.77919C144.612 9.8039 144.639 9.8286 144.666 9.85331Z" fill="#0B1B38"/>
</g>
<g id="Group_28">
<path id="Vector_54" d="M132.094 3.28907L131.967 3.35495L131.685 3.50318C131.613 3.54435 131.486 3.54435 131.413 3.50318L129.679 2.59734L129.552 2.53146C129.479 2.49029 129.479 2.42441 129.552 2.39147L129.951 2.17737C130.024 2.13619 130.151 2.13619 130.224 2.17737L132.085 3.15731C132.157 3.19849 132.157 3.26437 132.085 3.29731L132.094 3.28907Z" fill="#F4F5FA"/>
<path id="Vector_55" d="M131.975 3.35468L131.694 3.50291C131.621 3.54408 131.494 3.54408 131.422 3.50291L129.688 2.59708L129.969 2.44885C130.042 2.40768 130.169 2.40768 130.241 2.44885L131.975 3.35468Z" fill="#0B1B38"/>
</g>
</g>
<g id="Group_29">
<g id="Group_30">
<path id="Vector_56" d="M137.949 12.9L120.502 3.76758V36.5505L143.177 48.4252V21.3572L137.949 12.9Z" fill="#DCDCED"/>
<path id="Vector_57" d="M137.948 18.6236L143.177 21.3576L137.948 12.9004V18.6236Z" fill="#F8F8FD"/>
</g>
<path id="Vector_58" d="M127.6 9.78681L122.526 7.12695L122.471 9.30919L122.762 9.45742L122.925 8.79039C123.143 8.17278 123.515 8.0822 124.042 8.31277L124.596 8.60099V14.6454L124.142 14.4066C123.86 14.2583 123.67 14.1266 123.67 14.456L126.438 15.9053C126.438 15.7406 126.384 15.6171 126.275 15.5347C126.239 15.51 126.202 15.4853 126.175 15.4689L125.476 15.1065V9.06214L126.075 9.37507C126.629 9.66329 127.001 10.1162 127.183 10.9479C127.183 10.9809 127.183 11.0056 127.192 11.022L127.355 11.862L127.646 12.0102L127.591 9.77034L127.6 9.78681Z" fill="#262028"/>
<g id="Group_31">
<path id="Vector_59" d="M141.961 27.7551L122.508 17.5686V16.1934L141.961 26.3799V27.7551Z" fill="#CFCDE2"/>
<path id="Vector_60" d="M141.961 30.2907L122.508 20.0959V18.7207L141.961 28.9155V30.2907Z" fill="#CFCDE2"/>
<path id="Vector_61" d="M141.961 32.8195L122.508 22.633V21.2578L141.961 31.4443V32.8195Z" fill="#CFCDE2"/>
<path id="Vector_62" d="M133.555 30.951L122.508 25.1619V23.7949L133.555 29.5758V30.951Z" fill="#CFCDE2"/>
<path id="Vector_63" d="M133.555 41.0803L122.508 35.2912V33.916L133.555 39.7051V41.0803Z" fill="#CFCDE2"/>
<path id="Vector_64" d="M141.961 37.884L122.508 27.6975V26.3223L141.961 36.5088V37.884Z" fill="#CFCDE2"/>
<path id="Vector_65" d="M141.961 40.4192L122.508 30.2326V28.8574L141.961 39.0439V40.4192Z" fill="#CFCDE2"/>
<path id="Vector_66" d="M139.156 41.4807L122.508 32.76V31.3848L139.156 40.1137V41.4807Z" fill="#CFCDE2"/>
</g>
</g>
</g>
<g id="Group_32">
<g id="Group_33">
<g id="Group_34">
<g id="Group_35">
<g id="Group_36">
<g id="Group_37">
<path id="Vector_67" d="M107.784 48.7203C108.494 48.3785 109.097 48.6324 109.259 48.7203C109.129 48.6519 108.968 48.6519 108.785 48.7496C108.645 48.6714 108.398 48.6714 108.258 48.7496C108.075 48.6519 107.913 48.6519 107.784 48.7203Z" fill="#BFBEED"/>
<path id="Vector_68" d="M108.817 48.7324C108.527 48.625 108.311 48.7031 108.247 48.7324C108.075 48.6445 107.913 48.6445 107.784 48.7129C107.881 48.6641 107.892 48.6641 107.945 48.6348L108.021 48.6055C108.021 48.6055 108.075 48.5859 108.096 48.5859L108.171 48.5664C108.171 48.5664 108.225 48.5566 108.247 48.5566H108.322C108.322 48.5566 108.376 48.5371 108.398 48.5371H108.462C108.462 48.5371 108.516 48.5371 108.527 48.5371H108.591C108.591 48.5371 108.645 48.5371 108.656 48.5371H108.72C108.72 48.5371 108.774 48.5469 108.796 48.5566H108.871C108.871 48.5566 108.925 48.5859 108.946 48.5859L109.022 48.6055C109.022 48.6055 109.076 48.625 109.097 48.6348L109.173 48.6641C109.173 48.6641 109.237 48.6934 109.259 48.7031C109.129 48.6348 108.979 48.6348 108.817 48.7129V48.7324Z" fill="#BFBEED"/>
</g>
</g>
<g id="Group_38">
<path id="Vector_69" d="M153.963 73.498C153.93 74.2304 153.532 74.582 153.209 74.7578C153.403 74.6601 153.532 74.4062 153.532 74.0449C153.823 73.8984 153.963 73.6934 153.963 73.498Z" fill="#98A4E0"/>
</g>
<g id="Group_39">
<g id="Group_40">
<path id="Vector_70" d="M152.747 71.9716L108.785 48.75C108.785 48.75 108.795 48.75 108.806 48.7402L152.768 71.9618C152.768 71.9618 152.757 71.9618 152.747 71.9716Z" fill="#BFBEED"/>
<path id="Vector_71" d="M152.768 71.9528L108.806 48.7312C108.979 48.6531 109.129 48.6531 109.259 48.7117L113.65 51.0358L118.042 53.3599L122.434 55.684L126.826 58.0081L131.218 60.3323L135.61 62.6564L140.002 64.9805L144.394 67.3046L148.785 69.6287L153.177 71.9528C153.048 71.8845 152.897 71.8845 152.725 71.9724L152.768 71.9528Z" fill="#BFBEED"/>
</g>
</g>
<g id="Group_41">
<path id="Vector_72" d="M153.963 73.2109V73.4844C153.963 73.6797 153.812 73.8847 153.532 74.0312V73.7578C153.823 73.6113 153.963 73.4062 153.963 73.2109Z" fill="#BFBEED"/>
</g>
<g id="Group_42">
<g id="Group_43">
<path id="Vector_73" d="M153.209 71.9413C153.855 72.3124 153.952 72.8983 153.952 73.2206C153.952 73.4159 153.801 73.621 153.521 73.7674C153.521 73.162 153.177 72.4784 152.735 72.2441C152.875 72.1757 152.875 72.039 152.735 71.9706C152.908 71.8828 153.08 71.873 153.209 71.9413Z" fill="#BFBEED"/>
<path id="Vector_74" d="M153.511 73.4929C153.511 73.4929 153.543 73.444 153.554 73.4245C153.586 73.3659 153.661 73.1999 153.661 73.0241C153.661 72.8386 153.64 72.6824 153.564 72.5163C153.424 72.2234 153.349 72.1843 152.768 71.9402C152.94 71.8621 153.091 71.8621 153.209 71.9207C153.317 71.9793 153.36 72.0086 153.468 72.0964L153.532 72.1648C153.532 72.1648 153.618 72.2527 153.651 72.2917L153.704 72.3699C153.704 72.3699 153.758 72.4578 153.78 72.4968L153.823 72.5847C153.823 72.5847 153.855 72.6824 153.877 72.7214L153.909 72.8191C153.909 72.8191 153.93 72.9167 153.941 72.9558V73.0632C153.941 73.0632 153.952 73.1511 153.952 73.1901C153.952 73.3854 153.801 73.5905 153.521 73.737C153.521 73.6491 153.521 73.5612 153.5 73.4733L153.511 73.4929Z" fill="#BFBEED"/>
</g>
</g>
<g id="Group_44">
<path id="Vector_75" d="M47.7181 82.9081C47.0722 82.5468 46.9753 81.9609 46.9753 81.6387C46.9753 81.8437 47.1153 82.039 47.4059 82.1953C47.4059 82.5566 47.5243 82.8105 47.7181 82.9081Z" fill="#98A4E0"/>
</g>
<g id="Group_45">
<g id="Group_46">
<path id="Vector_76" d="M108.257 48.7422L48.2129 80.1373C48.2129 80.1373 48.2129 80.1373 48.2021 80.1373L108.246 48.7422C108.246 48.7422 108.246 48.7422 108.257 48.7422Z" fill="#BFBEED"/>
<path id="Vector_77" d="M108.257 48.7412L48.1914 80.1265C48.0192 80.0386 47.8577 80.0386 47.7285 80.107L53.7351 76.9724L59.7416 73.8377L65.7481 70.7031L71.7547 67.5685L77.7612 64.4339L83.7678 61.2992L89.7743 58.1646L95.7809 55.03L101.787 51.8954L107.794 48.7607C107.923 48.6924 108.085 48.6826 108.268 48.7705L108.257 48.7412Z" fill="#BFBEED"/>
</g>
</g>
<g id="Group_47">
<path id="Vector_78" d="M47.4167 81.9218V82.1953C47.1153 82.039 46.9753 81.8437 46.9753 81.6387V81.3652C46.9753 81.5703 47.126 81.7656 47.4167 81.9218Z" fill="#CCCBF6"/>
</g>
<g id="Group_48">
<path id="Vector_79" d="M46.9751 81.3644C47.0074 80.6418 47.4057 80.2805 47.7287 80.1047C47.8578 80.0364 48.0301 80.0364 48.2023 80.134C48.0624 80.2024 48.0624 80.3391 48.2023 80.4075C47.7717 80.6321 47.4057 81.3156 47.4057 81.9211C47.1151 81.7648 46.9644 81.5597 46.9751 81.3644Z" fill="#BFBEED"/>
<path id="Vector_80" d="M48.1915 80.1252C48.0946 80.1741 47.804 80.467 47.7287 80.5842C47.6533 80.7209 47.6102 80.8967 47.621 81.0725C47.4918 81.3361 47.4057 81.6388 47.4057 81.922C47.1151 81.7658 46.9644 81.5607 46.9751 81.3654C46.9751 81.2189 46.9751 81.2189 46.9967 81.1408L47.0182 81.0334C47.0182 81.0334 47.0397 80.9357 47.0505 80.8967L47.0828 80.799C47.0828 80.799 47.1259 80.7111 47.1474 80.6721L47.2012 80.5842C47.2012 80.5842 47.255 80.4963 47.2873 80.467L47.3519 80.3889C47.3519 80.3889 47.438 80.301 47.4703 80.2717L47.5457 80.2131C47.6318 80.1448 47.6533 80.135 47.7394 80.0959C47.8686 80.0276 48.0301 80.0276 48.2023 80.1155L48.1915 80.1252Z" fill="#BFBEED"/>
</g>
<g id="Group_49">
<path id="Vector_81" d="M93.4773 105.426L153.532 74.041C153.532 74.4023 153.403 74.6562 153.209 74.7539L150.206 76.3261L147.202 77.8983L144.199 79.4705L141.196 81.0427L138.193 82.6148L135.189 84.187L132.186 85.7592L129.183 87.3314L126.18 88.9036L123.176 90.4758L120.173 92.048L117.17 93.6202L114.166 95.1924L111.163 96.7646L108.16 98.3368L105.157 99.909L102.153 101.481L99.1501 103.053L96.1468 104.626L93.1436 106.198C93.3373 106.1 93.4557 105.846 93.4665 105.485L93.4773 105.426Z" fill="#98A4E0"/>
</g>
<g id="Group_50">
<path id="Vector_82" d="M47.4055 82.1934L91.3674 105.415C91.3674 105.776 91.4858 106.03 91.6795 106.128L87.2877 103.804L82.8958 101.48L78.5039 99.1555L74.112 96.8314L69.7201 94.5073L65.3283 92.1831L60.9364 89.859L56.5445 87.5349L52.1526 85.2108L47.7607 82.8867C47.567 82.789 47.4486 82.5351 47.4486 82.1738H47.4055V82.1934Z" fill="#98A4E0"/>
</g>
<path id="Vector_83" d="M153.521 73.7695V74.043L93.4773 105.428V105.155L153.521 73.7695Z" fill="#CCCBF6"/>
<path id="Vector_84" d="M91.3674 105.143V105.417L47.4055 82.1953L47.4163 81.9219L91.3674 105.143Z" fill="#CCCBF6"/>
<g id="Group_51">
<path id="Vector_85" d="M93.1548 106.139C92.4444 106.48 91.8416 106.227 91.6801 106.139C91.4863 106.041 91.3679 105.787 91.3679 105.426C91.9492 105.729 92.8965 105.738 93.4777 105.426C93.4777 105.787 93.3486 106.041 93.1548 106.139Z" fill="#98A4E0"/>
</g>
<g id="Group_52">
<path id="Vector_86" d="M152.746 71.9716C152.886 72.0497 152.886 72.1767 152.746 72.245C132.724 82.7035 112.713 93.1718 92.6914 103.63C92.5515 103.708 92.3039 103.708 92.164 103.63C77.5136 95.8865 62.8633 88.1525 48.2021 80.4087C48.0622 80.3306 48.0622 80.2037 48.2021 80.1353C68.2239 69.6768 88.235 59.2085 108.257 48.75C108.397 48.6719 108.644 48.6719 108.784 48.75C123.435 56.4938 138.085 64.2278 152.746 71.9716Z" fill="#F4F4FB"/>
<path id="Vector_87" d="M150.033 71.9599L108.515 50.0273L52.54 79.362L94.0584 101.295L150.033 71.9599Z" fill="#185BCC"/>
</g>
<g id="Group_53">
<g id="Group_54">
<path id="Vector_88" d="M93.4768 105.154V105.428C92.8955 105.73 91.9482 105.73 91.3669 105.428V105.154C91.9482 105.457 92.8955 105.467 93.4768 105.154Z" fill="#CCCBF6"/>
</g>
</g>
<g id="Group_55">
<g id="Group_56">
<path id="Vector_89" d="M92.6917 103.627L152.746 72.2422C153.123 72.4375 153.435 72.9648 153.511 73.4921L93.4559 104.877C93.3806 104.35 93.0684 103.823 92.6917 103.627Z" fill="#E3E2F2"/>
<path id="Vector_90" d="M93.4558 104.887L153.51 73.502C153.521 73.5898 153.532 73.6777 153.532 73.7656L93.4773 105.151C93.4773 105.063 93.4773 104.975 93.4558 104.887Z" fill="#CCCBF6"/>
</g>
</g>
<g id="Group_57">
<g id="Group_58">
<path id="Vector_91" d="M48.2131 80.4102L92.175 103.632C91.9489 103.749 91.7336 103.993 91.5937 104.286L47.6318 81.0644C47.7825 80.7715 47.9871 80.5273 48.2131 80.4102Z" fill="#EDECF8"/>
<path id="Vector_92" d="M47.6318 81.0664L91.5937 104.288C91.4645 104.552 91.3784 104.854 91.3784 105.147L47.4165 81.9257C47.4165 81.6328 47.5026 81.3301 47.6318 81.0664Z" fill="#E3E2F2"/>
</g>
</g>
<g id="Group_59">
<g id="Group_60">
<path id="Vector_93" d="M92.691 103.629C93.1323 103.863 93.4768 104.537 93.4768 105.152C92.8955 105.455 91.9482 105.455 91.3669 105.152C91.3669 104.547 91.7329 103.863 92.1635 103.639C92.3034 103.717 92.551 103.717 92.691 103.639V103.629Z" fill="#CCCBF6"/>
</g>
</g>
</g>
<g id="Group_61">
<path id="Vector_94" d="M49.0744 82.7006C49.0744 82.7885 49.0529 82.8569 49.0206 82.9057C48.9345 83.0424 48.7622 83.0717 48.5577 82.9643C48.2778 82.8178 48.041 82.4565 48.041 82.1538C48.041 81.9683 48.1271 81.8511 48.2671 81.8218C48.3532 81.8022 48.4501 81.8218 48.5577 81.8804C48.8483 82.0268 49.0744 82.3882 49.0744 82.6909V82.7006Z" fill="#E3E2F2"/>
<path id="Vector_95" d="M49.0748 82.7006C49.0748 82.7885 49.0532 82.8569 49.021 82.9057C48.9348 82.9252 48.838 82.9057 48.7303 82.8471C48.4504 82.7006 48.2136 82.3393 48.2136 82.0366C48.2136 81.9487 48.2352 81.8804 48.2674 81.8218C48.3536 81.8022 48.4504 81.8218 48.5581 81.8804C48.8487 82.0268 49.0748 82.3882 49.0748 82.6909V82.7006Z" fill="#0B1B38"/>
<path id="Vector_96" d="M50.3982 83.4043C50.3982 83.6972 50.6243 84.0586 50.9149 84.2148L52.3358 84.9569C52.4219 84.996 52.4973 85.0253 52.5619 85.0253C52.6587 85.0253 52.7341 84.9862 52.7772 84.9179C52.8202 84.8593 52.8417 84.7812 52.8417 84.6933C52.8417 84.4003 52.6157 84.039 52.325 83.8828L50.9041 83.1406C50.9041 83.1406 50.7965 83.0918 50.7534 83.082C50.7319 83.082 50.6996 83.082 50.6781 83.082C50.5059 83.082 50.3875 83.209 50.3875 83.414L50.3982 83.4043Z" fill="#E3E2F2"/>
<path id="Vector_97" d="M50.6997 83.3066C50.6997 83.5996 50.9258 83.9609 51.2164 84.1171L52.6481 84.8593C52.6481 84.8593 52.7557 84.9081 52.7988 84.9179C52.8418 84.8593 52.8634 84.7812 52.8634 84.6933C52.8634 84.4003 52.6373 84.039 52.3467 83.8828L50.9258 83.1406C50.9258 83.1406 50.8181 83.0918 50.7751 83.082C50.732 83.1406 50.7105 83.2187 50.7105 83.3066H50.6997Z" fill="#0B1B38"/>
</g>
</g>
<path id="Vector_98" d="M128.042 62.4216L119.786 58.0956C119.334 57.8613 119.334 57.4804 119.786 57.2461L121.013 56.6016C121.465 56.3672 122.186 56.3672 122.628 56.6016L130.884 60.9275C131.336 61.1619 131.336 61.5427 130.884 61.7771L129.657 62.4216C129.205 62.656 128.483 62.656 128.042 62.4216Z" fill="#F4F4FB"/>
<g id="Group_62">
<path id="Vector_99" d="M126.125 59.7246C125.673 59.959 125.673 60.3496 126.125 60.5839C126.578 60.8183 127.31 60.8183 127.762 60.5839C128.214 60.3496 128.214 59.959 127.762 59.7246C127.31 59.4902 126.578 59.4902 126.125 59.7246Z" fill="#010958"/>
<path id="Vector_100" d="M128.494 60.9829C128.203 61.1294 128.203 61.3735 128.494 61.5298C128.784 61.6762 129.247 61.6762 129.538 61.5298C129.828 61.3833 129.828 61.1391 129.538 60.9829C129.247 60.8364 128.784 60.8364 128.494 60.9829Z" fill="#010958"/>
<path id="Vector_101" d="M122.875 58.7768L121.239 57.9174C120.916 57.7514 120.916 57.478 121.239 57.3022C121.562 57.1362 122.089 57.1362 122.412 57.3022L124.048 58.1616C124.371 58.3276 124.371 58.601 124.048 58.7768C123.725 58.9428 123.198 58.9428 122.875 58.7768Z" fill="#010958"/>
</g>
<g id="Group_63">
<path id="Vector_102" d="M102.315 86.0332C96.9005 86.0332 91.486 84.9492 87.3633 82.7911C83.3266 80.6721 81.0984 77.8499 81.0984 74.8325C81.0984 71.8151 83.3266 68.9929 87.3633 66.8739C95.6088 62.5577 109.021 62.5577 117.267 66.8739C121.303 68.9929 123.532 71.8151 123.532 74.8325C123.532 77.8499 121.303 80.6721 117.267 82.7911C113.144 84.9492 107.73 86.0332 102.315 86.0332ZM102.315 64.0713C96.9867 64.0713 91.6583 65.1357 87.6001 67.2547C83.7141 69.2859 81.572 71.9811 81.572 74.8325C81.572 77.6839 83.7141 80.3791 87.6001 82.4103C95.7165 86.6581 108.914 86.6581 117.03 82.4103C120.916 80.3791 123.058 77.6839 123.058 74.8325C123.058 71.9811 120.916 69.2859 117.03 67.2547C112.972 65.1259 107.643 64.0713 102.315 64.0713Z" fill="#E3E2F2"/>
<path id="Vector_103" d="M102.315 89.2663C95.3182 89.2663 88.3214 87.8699 82.993 85.077C77.783 82.3525 74.9197 78.7101 74.9197 74.8333C74.9197 70.9566 77.783 67.3141 82.993 64.5897C93.6498 59.004 110.991 59.004 121.648 64.5897C126.858 67.3141 129.721 70.9566 129.721 74.8333C129.721 78.7101 126.858 82.3525 121.648 85.077C116.32 87.8699 109.323 89.2663 102.326 89.2663H102.315ZM102.315 60.8301C95.4044 60.8301 88.4936 62.2069 83.2298 64.9607C78.1813 67.6071 75.3933 71.1128 75.3933 74.8333C75.3933 78.5539 78.1813 82.0596 83.2298 84.7059C93.7574 90.2135 110.873 90.2135 121.4 84.7059C126.449 82.0596 129.237 78.5539 129.237 74.8333C129.237 71.1128 126.449 67.6071 121.4 64.9607C116.137 62.2069 109.226 60.8301 102.315 60.8301Z" fill="#E3E2F2"/>
<path id="Vector_104" d="M102.315 83.0847C98.3431 83.0847 94.3603 82.2937 91.3355 80.702C88.3537 79.1396 86.7175 77.0596 86.7175 74.8234C86.7175 72.5871 88.3537 70.5071 91.3355 68.9447C97.3851 65.771 107.245 65.771 113.295 68.9447C116.277 70.5071 117.913 72.5871 117.913 74.8234C117.913 77.0596 116.277 79.1396 113.295 80.702C110.27 82.284 106.287 83.0847 102.315 83.0847ZM102.315 67.0014C98.4292 67.0014 94.5325 67.7729 91.5723 69.3256C88.752 70.8001 87.1912 72.7629 87.1912 74.8234C87.1912 76.8838 88.7412 78.8466 91.5723 80.3212C97.4927 83.4265 107.127 83.4265 113.058 80.3212C115.878 78.8466 117.439 76.8838 117.439 74.8234C117.439 72.7629 115.889 70.8001 113.058 69.3256C110.098 67.7729 106.212 67.0014 102.315 67.0014Z" fill="#E3E2F2"/>
<path id="Vector_105" d="M102.315 79.9297C99.8824 79.9297 97.4497 79.4415 95.5982 78.4747C93.7575 77.508 92.7456 76.2189 92.7456 74.8323C92.7456 73.4456 93.7575 72.1469 95.5982 71.1899C99.3011 69.2466 105.329 69.2466 109.032 71.1899C110.873 72.1566 111.885 73.4456 111.885 74.8323C111.885 76.2189 110.873 77.508 109.032 78.4747C107.181 79.4415 104.748 79.9297 102.315 79.9297ZM102.315 70.1548C99.9685 70.1548 97.6219 70.6235 95.835 71.561C94.145 72.4398 93.2192 73.6019 93.2192 74.8323C93.2192 76.0627 94.145 77.215 95.835 78.1036C99.4088 79.9785 105.222 79.9785 108.795 78.1036C110.485 77.2248 111.411 76.0627 111.411 74.8323C111.411 73.6019 110.485 72.4496 108.795 71.561C107.008 70.6235 104.662 70.1548 102.315 70.1548Z" fill="#E3E2F2"/>
</g>
</g>
<g id="VR back">
<path id="Vector_106" opacity="0.5" d="M85.1131 41.2789C82.3467 42.0504 79.7417 43.0562 77.4058 44.2768C74.4241 45.8393 72.1313 47.6361 70.5381 49.55L70.5166 41.3473C72.1097 39.4333 74.4026 37.6365 77.3843 36.0741C79.7202 34.8534 82.3144 33.8574 85.0916 33.0762L85.1131 41.2789Z" fill="#98A4E0"/>
<path id="Vector_107" opacity="0.5" d="M79.2576 50.2147C81.0875 49.3945 83.0359 48.7011 85.0919 48.125L85.1134 56.3278C83.0574 56.9039 81.0875 57.607 79.2576 58.4273V50.205V50.2147Z" fill="#98A4E0"/>
<path id="Vector_108" opacity="0.5" d="M132.875 47.0793C132.864 42.724 129.721 38.3883 123.435 35.0681C117.45 31.914 109.689 30.2539 101.809 30.0781L101.831 38.4664C109.71 38.6324 117.471 40.3023 123.456 43.4564C129.743 46.7668 132.886 51.1123 132.897 55.4676L132.875 47.0793Z" fill="#98A4E0"/>
<path id="Vector_109" opacity="0.5" d="M117.223 55.2617C119.01 55.7695 120.69 56.3749 122.218 57.0976C122.832 57.3808 123.402 57.6835 123.93 57.9862V63.982C123.402 63.6793 122.842 63.3864 122.24 63.1032C120.7 62.3805 119.01 61.7653 117.223 61.2575V55.252V55.2617Z" fill="#98A4E0"/>
<path id="Vector_110" opacity="0.5" d="M116.19 43.9844C119.032 44.7461 121.712 45.7323 124.113 46.9628V55.3413C121.712 54.1206 119.043 53.1246 116.19 52.3727V43.9941V43.9844Z" fill="#98A4E0"/>
<path id="Vector_111" opacity="0.5" d="M116.19 22.2363C119.032 22.998 121.712 23.9843 124.113 25.2147V33.5932C121.712 32.3726 119.043 31.3765 116.19 30.6246V22.2363Z" fill="#98A4E0"/>
<path id="Vector_112" opacity="0.3" d="M107.159 50.4961V58.6012C105.038 58.318 102.874 58.152 100.711 58.1031L100.689 49.998C102.874 50.0469 105.038 50.2129 107.169 50.4961H107.159Z" fill="#98A4E0"/>
</g>
<g id="Group_64">
<path id="Vector_113" d="M142.316 79.6914L142.154 79.6035L142.143 78.6953L142.316 78.7832V79.6914Z" fill="#BFBEED"/>
<path id="Vector_114" d="M142.316 78.7831L142.143 78.6952L145.631 76.8691L145.803 76.957L142.316 78.7831Z" fill="#F4F4FB"/>
<path id="Vector_115" d="M145.803 76.959V77.8671L142.315 79.6932V78.7851L145.803 76.959Z" fill="#CCCBF6"/>
</g>
<g id="Group_65">
<path id="Vector_116" d="M139.485 81.1796L139.312 81.082V80.1738L139.485 80.2617V81.1796Z" fill="#BFBEED"/>
<path id="Vector_117" d="M139.485 80.2617L139.312 80.1738L141.272 79.1484L141.444 79.2363L139.485 80.2617Z" fill="#F4F4FB"/>
<path id="Vector_118" d="M141.444 79.2383V80.1562L139.485 81.1816V80.2636L141.444 79.2383Z" fill="#CCCBF6"/>
</g>
<g id="Group_66">
<path id="Vector_119" d="M117.245 44.9391C117.17 44.9391 117.095 44.8806 117.084 44.8122C116.879 43.3084 116.449 41.9022 115.814 40.7304C115.771 40.662 115.814 40.5741 115.889 40.535C115.964 40.496 116.061 40.535 116.104 40.6034C116.75 41.8045 117.192 43.2498 117.396 44.7829C117.396 44.861 117.342 44.9294 117.256 44.9391C117.256 44.9391 117.245 44.9391 117.235 44.9391H117.245Z" fill="#010958"/>
<g id="Group_67">
<g id="Group_68">
<path id="Vector_120" d="M108.128 29.5404L105.878 30.7317C106.836 30.2239 108.171 30.2923 109.635 31.0637L111.885 29.8724C110.421 29.1009 109.086 29.0326 108.128 29.5404Z" fill="#1499FC"/>
<g id="Clip path group_7">
<mask id="mask6_20_10579" style="mask-type:luminance" maskUnits="userSpaceOnUse" x="105" y="29" width="7" height="3">
<g id="clippath-6">
<path id="Vector_121" d="M108.128 29.5423L105.878 30.7337C106.836 30.2259 108.171 30.2942 109.635 31.0657L111.885 29.8743C110.421 29.1029 109.086 29.0345 108.128 29.5423Z" fill="white"/>
</g>
</mask>
<g mask="url(#mask6_20_10579)">
<g id="Group_69">
<g id="Group_70">
<path id="Vector_122" d="M109.635 31.0657L111.885 29.8743C110.421 29.1029 109.086 29.0345 108.128 29.5423L105.878 30.7337C106.836 30.2259 108.171 30.2942 109.635 31.0657Z" fill="#1499FC"/>
</g>
</g>
</g>
</g>
</g>
<g id="Group_71">
<path id="Vector_123" d="M113.359 42.4213L115.609 41.23C116.557 40.7319 117.149 39.6675 117.149 38.1539C117.149 35.1072 114.802 31.3964 111.885 29.873L109.635 31.0644C112.552 32.5975 114.91 36.2985 114.899 39.3453C114.899 40.8589 114.307 41.9233 113.359 42.4213Z" fill="#1499FC"/>
<g id="Clip path group_8">
<mask id="mask7_20_10579" style="mask-type:luminance" maskUnits="userSpaceOnUse" x="109" y="29" width="9" height="14">
<g id="clippath-7">
<path id="Vector_124" d="M113.36 42.4194L115.61 41.228C116.557 40.73 117.149 39.6656 117.149 38.152C117.149 35.1052 114.802 31.3945 111.885 29.8711L109.635 31.0624C112.552 32.5956 114.91 36.2966 114.899 39.3433C114.899 40.8569 114.307 41.9213 113.36 42.4194Z" fill="white"/>
</g>
</mask>
<g mask="url(#mask7_20_10579)">
<g id="Group_72">
<g id="Group_73">
<path id="Vector_125" d="M113.359 42.4194L115.609 41.228C116.557 40.73 117.149 39.6656 117.149 38.152C117.149 35.1052 114.802 31.3945 111.885 29.8711L109.635 31.0624C112.552 32.5956 114.91 36.2966 114.899 39.3433C114.899 40.8569 114.307 41.9213 113.359 42.4194Z" fill="#1499FC"/>
</g>
</g>
</g>
</g>
</g>
<path id="Vector_126" d="M109.635 31.0621C106.718 29.5289 104.339 30.7593 104.328 33.8061C104.328 36.843 106.675 40.5538 109.592 42.087C112.509 43.6201 114.888 42.3897 114.899 39.3429C114.899 36.2962 112.552 32.5854 109.635 31.0621Z" fill="#021B74"/>
</g>
<g id="Group_74">
<g id="Group_75">
<path id="Vector_127" d="M114.059 47.8761C113.768 47.7394 113.542 47.632 113.069 47.505C112.972 47.4757 112.617 47.3879 112.197 47.3781C111.734 47.3586 111.411 47.4367 111.293 47.466C110.937 47.5441 110.69 47.6711 110.528 47.7589C111.239 47.3683 112.208 47.4562 113.187 47.9542C113.51 47.7785 113.811 47.7589 114.059 47.8859V47.8761Z" fill="#8491D5"/>
<g id="Clip path group_9">
<mask id="mask8_20_10579" style="mask-type:luminance" maskUnits="userSpaceOnUse" x="110" y="47" width="5" height="1">
<g id="clippath-8">
<path id="Vector_128" d="M114.06 47.8742C113.769 47.7375 113.543 47.63 113.069 47.5031C112.972 47.4738 112.617 47.3859 112.197 47.3761C111.734 47.3566 111.411 47.4347 111.293 47.464C110.938 47.5422 110.69 47.6691 110.529 47.757C111.239 47.3664 112.208 47.4543 113.188 47.9523C113.511 47.7765 113.812 47.757 114.06 47.8839V47.8742Z" fill="white"/>
</g>
</mask>
<g mask="url(#mask8_20_10579)">
<g id="Group_76">
<g id="Group_77">
<path id="Vector_129" d="M114.059 47.8784C112.735 47.2535 111.583 47.2046 110.529 47.7515C111.239 47.3609 112.208 47.4488 113.187 47.9468C113.51 47.771 113.812 47.7515 114.059 47.8784Z" fill="#8491D5"/>
<path id="Vector_130" d="M113.166 47.9376C113.166 47.9376 113.209 47.9376 113.231 47.9376C113.543 47.7814 113.833 47.7716 114.07 47.8888C114.016 47.8595 113.941 47.8302 113.887 47.8009C113.823 47.7716 113.747 47.7423 113.683 47.713L113.489 47.6447C113.424 47.6251 113.338 47.5958 113.274 47.5763L113.08 47.5177C113.015 47.4982 112.918 47.4787 112.854 47.4689L112.66 47.4298C112.585 47.4298 112.488 47.4103 112.423 47.4005H112.219C112.143 47.3908 112.047 47.381 111.971 47.3908H111.767C111.691 47.4103 111.584 47.4201 111.508 47.4396L111.315 47.4787C111.239 47.4982 111.132 47.5275 111.056 47.547L110.873 47.6154C110.776 47.6544 110.647 47.7228 110.55 47.7716C111.25 47.381 112.208 47.4689 113.177 47.9474L113.166 47.9376Z" fill="#8491D5"/>
</g>
</g>
</g>
</g>
</g>
<g id="Group_78">
<path id="Vector_131" d="M122.144 66.5307L110.583 53.9434C110.313 54.2949 110.227 54.5195 110.303 54.6074L110.884 55.2324L111.465 55.8573L112.047 56.4823L112.628 57.1073L113.209 57.7323L113.79 58.3572L114.372 58.9822L114.953 59.6072L115.534 60.2321L116.116 60.8571L116.697 61.4821L117.278 62.1071L117.859 62.732L118.441 63.357L119.022 63.982L119.603 64.6069L120.184 65.2319L120.766 65.8569L121.347 66.4819L121.928 67.1068C121.842 67.0189 121.928 66.7846 122.197 66.433L122.144 66.5307Z" fill="#8491D5"/>
</g>
<g id="Group_79">
<path id="Vector_132" d="M110.528 47.7499L110.162 47.9452C110.872 47.5546 111.841 47.6425 112.821 48.1405L113.187 47.9452C112.196 47.4472 111.238 47.3593 110.528 47.7499Z" fill="#8491D5"/>
<g id="Clip path group_10">
<mask id="mask9_20_10579" style="mask-type:luminance" maskUnits="userSpaceOnUse" x="110" y="47" width="4" height="2">
<g id="clippath-9">
<path id="Vector_133" d="M110.528 47.7518L110.162 47.9471C110.872 47.5565 111.841 47.6444 112.82 48.1424L113.186 47.9471C112.196 47.4491 111.238 47.3612 110.528 47.7518Z" fill="white"/>
</g>
</mask>
<g mask="url(#mask9_20_10579)">
<g id="Group_80">
<g id="Group_81">
<path id="Vector_134" d="M112.831 48.1484L113.197 47.9531C113.197 47.9531 113.176 47.9434 113.165 47.9336L112.799 48.1289C112.799 48.1289 112.82 48.1387 112.831 48.1484Z" fill="#8491D5"/>
<path id="Vector_135" d="M112.799 48.1283L113.165 47.933C112.186 47.4545 111.238 47.3666 110.539 47.7572L110.173 47.9525C110.872 47.5619 111.83 47.6498 112.799 48.1283Z" fill="#8491D5"/>
</g>
</g>
</g>
</g>
</g>
<g id="Group_82">
<path id="Vector_136" d="M110.582 53.9536C109.699 52.9966 109.42 51.6685 109.979 51.0924C110.313 50.7408 110.862 50.7408 111.422 51.024C111.411 50.2037 111.734 49.3054 112.208 48.6999C112.24 48.6609 112.724 48.2117 112.832 48.1433C112.035 47.6355 110.873 47.5672 110.173 47.948C110.119 47.9773 110.055 48.0164 110.001 48.0456C109.936 48.0945 109.839 48.1531 109.775 48.2019L109.624 48.3288L109.495 48.4558L109.323 48.6609C109.237 48.778 109.129 48.944 109.054 49.0612L108.935 49.3054C108.892 49.4323 108.827 49.5885 108.784 49.7155L108.72 49.9889C108.698 50.1061 108.677 50.2623 108.666 50.3795V50.6725C108.666 50.7799 108.666 50.9264 108.666 51.0436L108.698 51.3463C108.72 51.4537 108.741 51.5904 108.763 51.6881L108.838 51.9908C108.871 52.0884 108.903 52.2154 108.935 52.313L109.043 52.6158C109.086 52.7036 109.129 52.8306 109.172 52.9185L109.312 53.2114C109.366 53.2993 109.42 53.4165 109.473 53.5044L109.656 53.7876C109.71 53.8755 109.796 53.9829 109.85 54.0708L110.065 54.3442C110.13 54.4223 110.227 54.5297 110.302 54.6176C110.227 54.5297 110.302 54.2954 110.582 53.9536Z" fill="#8491D5"/>
</g>
<g id="Group_83">
<path id="Vector_137" d="M116.201 49.6754C115.555 48.8649 114.899 48.318 114.059 47.8786C113.811 47.7517 113.51 47.7712 113.187 47.947C113.994 48.3473 114.812 49.0211 115.512 49.9293C115.921 49.7047 116.158 49.6266 116.19 49.6754H116.201Z" fill="#E3E2F2"/>
<path id="Vector_138" d="M113.198 47.9475C114.306 48.5237 115.48 49.7932 115.577 49.9006C115.953 49.6955 116.169 49.6272 116.212 49.676C116.179 49.6467 116.147 49.5979 116.126 49.5588C116.093 49.5295 116.061 49.4807 116.029 49.4514L115.932 49.344C115.932 49.344 115.867 49.2658 115.835 49.2365L115.738 49.1291C115.738 49.1291 115.674 49.0608 115.641 49.0315L115.544 48.9338C115.544 48.9338 115.469 48.8655 115.448 48.8362L115.34 48.7385C115.34 48.7385 115.265 48.6702 115.232 48.6506L115.125 48.5628C115.125 48.5628 115.049 48.5042 115.017 48.4749L114.909 48.387C114.909 48.387 114.834 48.3284 114.791 48.3089L114.672 48.2307C114.672 48.2307 114.586 48.1721 114.554 48.1526L114.436 48.0843C114.436 48.0843 114.35 48.0354 114.317 48.0159L114.199 47.9475C114.199 47.9475 114.113 47.8987 114.07 47.8792C113.865 47.7718 113.607 47.762 113.338 47.8792C113.295 47.8987 113.241 47.9182 113.198 47.9475Z" fill="#BFBEED"/>
</g>
<g id="Group_84">
<path id="Vector_139" d="M115.157 50.1269L115.523 49.9316C115.426 49.8144 115.34 49.6973 115.243 49.5898L114.877 49.7851C114.974 49.8926 115.071 50.0097 115.157 50.1269Z" fill="#E3E2F2"/>
<path id="Vector_140" d="M114.878 49.7851L115.244 49.5898C114.608 48.8574 113.898 48.3105 113.198 47.959L112.832 48.1543C113.532 48.5058 114.242 49.0625 114.878 49.7851Z" fill="#E3E2F2"/>
</g>
<g id="Group_85">
<path id="Vector_141" d="M112.531 51.9803C113.177 51.3944 114.361 50.5643 115.157 50.1249C114.457 49.2265 113.639 48.5527 112.832 48.1426C112.035 48.582 111.4 49.871 111.422 51.0233C111.799 51.2088 112.175 51.5213 112.531 51.9803Z" fill="#BFBEED"/>
<path id="Vector_142" d="M111.422 51.0214C111.799 51.2069 112.175 51.5194 112.531 51.9783C112.961 51.5877 113.629 51.0897 114.264 50.6698C113.661 49.7421 113.629 49.2636 114.178 49.3808C114.274 49.4003 114.522 49.4785 114.877 49.7812C114.242 49.0488 113.532 48.5019 112.832 48.1504C112.035 48.5898 111.4 49.8788 111.422 51.0311V51.0214Z" fill="#BFBEED"/>
<path id="Vector_143" d="M111.422 51.0214C111.798 51.2069 112.175 51.5194 112.53 51.9784C112.843 51.6952 113.284 51.3534 113.747 51.0214C113.736 51.0018 113.714 50.9726 113.693 50.9433C112.423 49.1465 112.315 49 112.294 48.5801C111.766 49.1855 111.4 50.1425 111.411 51.0116L111.422 51.0214Z" fill="#BFBEED"/>
</g>
<path id="Vector_144" d="M111.422 51.0209C110.851 50.7378 110.313 50.7378 109.979 51.0893C109.42 51.6655 109.71 52.9935 110.582 53.9505C114.425 58.1398 118.29 62.3388 122.143 66.5378C122.315 66.7234 122.488 66.8601 122.66 66.9382C122.983 67.0944 123.284 67.0944 123.467 66.8991C123.758 66.5964 123.65 65.9519 123.23 65.4148C119.678 60.9619 116.104 56.4699 112.531 51.9779C112.175 51.519 111.799 51.2065 111.422 51.0209Z" fill="#98A4E0"/>
<g id="Group_86">
<path id="Vector_145" d="M126.933 63.1325C123.359 58.6405 119.786 54.1583 116.212 49.6761C116.169 49.6272 115.943 49.7054 115.534 49.93L126.266 63.4059C126.675 63.1813 126.901 63.0934 126.944 63.1422L126.933 63.1325Z" fill="#CCCBF6"/>
<g id="Clip path group_11">
<mask id="mask10_20_10579" style="mask-type:luminance" maskUnits="userSpaceOnUse" x="115" y="49" width="12" height="15">
<g id="clippath-10">
<path id="Vector_146" d="M126.933 63.1286C123.359 58.6366 119.786 54.1544 116.212 49.6722C116.169 49.6233 115.943 49.7014 115.534 49.926L126.266 63.402C126.675 63.1774 126.901 63.0895 126.944 63.1383L126.933 63.1286Z" fill="white"/>
</g>
</mask>
<g mask="url(#mask10_20_10579)">
<g id="Group_87">
<g id="Group_88">
<path id="Vector_147" d="M115.523 49.9297L126.255 63.4056C126.255 63.4056 126.287 63.3861 126.298 63.3763L115.566 49.9004C115.566 49.9004 115.533 49.9199 115.523 49.9297Z" fill="#E3E2F2"/>
<path id="Vector_148" d="M115.566 49.8965L126.298 63.3724C126.513 63.2552 126.675 63.1771 126.782 63.1478L116.05 49.6816C115.942 49.7109 115.781 49.7891 115.566 49.9062V49.8965Z" fill="#CCCBF6"/>
<path id="Vector_149" d="M116.061 49.6727L126.793 63.1389C126.868 63.1096 126.922 63.1096 126.933 63.1292L126.395 62.4554L125.856 61.7816L125.318 61.1078L124.78 60.434L124.242 59.7602L123.704 59.0864L123.165 58.4126L122.627 57.7388L122.089 57.065L121.551 56.3912L121.013 55.7174L120.474 55.0436L119.936 54.3698L119.398 53.696L118.86 53.0222L118.321 52.3484L117.783 51.6746L117.245 51.0008L116.707 50.327L116.169 49.6532C116.169 49.6532 116.104 49.6337 116.018 49.6532L116.061 49.6727Z" fill="#BFBEED"/>
</g>
</g>
</g>
</g>
</g>
<g id="Group_89">
<path id="Vector_150" d="M126.621 68.1671C126.89 68.0109 126.976 67.9523 127.202 67.718C127.277 67.6398 127.406 67.4933 127.557 67.2395C127.676 67.0442 127.869 66.6242 127.912 65.9993C127.966 65.0618 127.611 64.0169 126.922 63.1283C126.89 63.0795 126.653 63.1674 126.244 63.392C127.514 65.0228 127.826 66.9953 126.965 67.8937C126.857 68.0011 126.75 68.089 126.621 68.1574V68.1671Z" fill="#8491D5"/>
<g id="Clip path group_12">
<mask id="mask11_20_10579" style="mask-type:luminance" maskUnits="userSpaceOnUse" x="126" y="63" width="2" height="6">
<g id="clippath-11">
<path id="Vector_151" d="M126.621 68.1671C126.89 68.0109 126.976 67.9523 127.202 67.718C127.278 67.6398 127.407 67.4933 127.557 67.2395C127.676 67.0442 127.87 66.6242 127.913 65.9993C127.966 65.0618 127.611 64.0169 126.922 63.1283C126.89 63.0795 126.653 63.1674 126.244 63.392C127.514 65.0228 127.827 66.9953 126.965 67.8937C126.858 68.0011 126.75 68.089 126.621 68.1574V68.1671Z" fill="white"/>
</g>
</mask>
<g mask="url(#mask11_20_10579)">
<g id="Group_90">
<g id="Group_91">
<path id="Vector_152" d="M126.621 68.1671C128.246 67.2004 128.365 65.0814 126.922 63.1381C126.89 63.0893 126.653 63.1771 126.244 63.4017C127.514 65.0325 127.827 67.0051 126.965 67.9035C126.858 68.0109 126.75 68.0988 126.621 68.1671Z" fill="#8491D5"/>
<path id="Vector_153" d="M126.782 63.1377C127.956 64.6806 127.751 65.8524 127.45 66.3016C127.482 66.9559 127.331 67.5223 126.965 67.8933C126.858 68.0008 126.75 68.0886 126.621 68.157C126.664 68.1277 126.728 68.0984 126.772 68.0691C126.825 68.0301 126.911 67.9715 126.965 67.9324L127.094 67.825L127.213 67.7078L127.364 67.5418C127.428 67.4539 127.514 67.327 127.568 67.2293L127.665 67.034C127.708 66.9363 127.751 66.8192 127.783 66.7215L127.837 66.5067C127.859 66.4188 127.88 66.3016 127.891 66.204L127.913 65.9891C127.913 65.911 127.913 65.7938 127.913 65.7157V65.4911C127.891 65.413 127.88 65.3153 127.87 65.2372L127.826 65.0224C127.805 64.954 127.783 64.8564 127.773 64.788L127.708 64.5732C127.687 64.5048 127.654 64.4169 127.622 64.3486L127.536 64.1337C127.504 64.0751 127.471 63.9873 127.439 63.9189L127.331 63.7138C127.299 63.6552 127.245 63.5674 127.213 63.5088L127.084 63.3135C127.041 63.2549 126.987 63.1768 126.933 63.1182C126.922 63.0986 126.868 63.0986 126.793 63.1182L126.782 63.1377Z" fill="#8491D5"/>
</g>
</g>
</g>
</g>
</g>
<path id="Vector_154" d="M125.889 63.6009L126.255 63.3959L115.523 49.9297L115.157 50.125L125.889 63.6009Z" fill="#E3E2F2"/>
<g id="Group_92">
<path id="Vector_155" d="M126.266 68.367L126.632 68.1717C126.761 68.1033 126.868 68.0154 126.976 67.908C127.837 66.9998 127.525 65.0273 126.255 63.4062L125.889 63.6016C127.159 65.2323 127.471 67.2049 126.61 68.1033C126.502 68.2107 126.395 68.2986 126.266 68.367Z" fill="#8491D5"/>
<g id="Clip path group_13">
<mask id="mask12_20_10579" style="mask-type:luminance" maskUnits="userSpaceOnUse" x="125" y="63" width="3" height="6">
<g id="clippath-12">
<path id="Vector_156" d="M126.266 68.3709L126.632 68.1756C126.761 68.1072 126.868 68.0193 126.976 67.9119C127.837 67.0037 127.525 65.0312 126.255 63.4102L125.889 63.6055C127.159 65.2362 127.471 67.2088 126.61 68.1072C126.502 68.2146 126.395 68.3025 126.266 68.3709Z" fill="white"/>
</g>
</mask>
<g mask="url(#mask12_20_10579)">
<g id="Group_93">
<g id="Group_94">
<path id="Vector_157" d="M126.265 68.371L126.631 68.1757C126.761 68.1073 126.868 68.0195 126.976 67.912C127.342 67.5312 127.493 66.9648 127.46 66.3203L127.094 66.5156C127.127 67.1699 126.976 67.7363 126.61 68.1073C126.502 68.2148 126.395 68.3026 126.265 68.371Z" fill="#8491D5"/>
<path id="Vector_158" d="M127.094 66.5155L127.46 66.3202C127.428 65.7246 127.234 65.0508 126.89 64.3965L126.524 64.5918C126.868 65.2461 127.062 65.9199 127.094 66.5155Z" fill="#BFBEED"/>
<path id="Vector_159" d="M126.524 64.5917L126.89 64.3964C126.718 64.0644 126.502 63.7324 126.255 63.4102L125.889 63.6055C126.136 63.9277 126.352 64.2597 126.524 64.5917Z" fill="#BFBEED"/>
</g>
</g>
</g>
</g>
</g>
<g id="Group_95">
<path id="Vector_160" d="M112.531 51.9804L123.231 65.4173C123.554 65.1439 124.006 64.8119 124.468 64.4896L113.747 51.0332C113.284 51.3652 112.843 51.707 112.531 51.9902V51.9804Z" fill="#BFBEED"/>
<path id="Vector_161" d="M113.747 51.0351L124.468 64.4916C124.641 64.3744 124.824 64.2572 124.996 64.14L114.264 50.6738C114.092 50.791 113.919 50.9082 113.747 51.0351Z" fill="#CCCBF6"/>
<path id="Vector_162" d="M114.275 50.6719L125.007 64.1381C125.093 64.0795 125.179 64.0306 125.265 63.972L114.533 50.5059C114.447 50.5547 114.361 50.6133 114.275 50.6719Z" fill="#CCCBF6"/>
<path id="Vector_163" d="M114.522 50.5058L125.254 63.972C125.394 63.8842 125.523 63.806 125.652 63.7377L114.92 50.2617C114.791 50.3398 114.662 50.418 114.533 50.5058H114.522Z" fill="#CCCBF6"/>
<path id="Vector_164" d="M114.921 50.2637L125.653 63.7396C125.739 63.6908 125.814 63.642 125.9 63.6029L115.168 50.127C115.093 50.166 115.007 50.2148 114.921 50.2637Z" fill="#CCCBF6"/>
</g>
<path id="Vector_165" d="M121.874 67.2127C123.177 68.6189 124.899 69.0779 126.266 68.3748C126.395 68.3064 126.503 68.2185 126.611 68.1111C127.472 67.203 127.159 65.2304 125.889 63.6094C125.093 64.0488 123.898 64.8691 123.23 65.4257C123.65 65.9628 123.747 66.6073 123.467 66.91C123.284 67.1053 122.972 67.1053 122.66 66.9491C122.488 66.8612 122.316 66.7342 122.143 66.5487C121.874 66.9002 121.788 67.1346 121.874 67.2225V67.2127Z" fill="#8491D5"/>
</g>
<g id="Group_96">
<g id="Group_97">
<path id="Vector_166" d="M107.148 75.0583C111.314 72.7244 112.261 69.5605 112.659 68.2129C112.336 69.4726 111.249 70.7225 109.398 71.7381C104.758 74.2673 97.0831 74.3357 92.2499 71.8944C90.1724 70.8495 88.9668 69.5019 88.6223 68.1152C89.0637 69.6288 89.5588 71.035 91.2919 72.8904C91.8193 73.4568 93.3264 74.8825 95.8022 75.8102C100.216 77.4703 104.554 76.5035 107.137 75.0583H107.148Z" fill="#BFBEED"/>
</g>
<path id="Vector_167" d="M104.651 46.239C106.922 47.3815 106.987 49.2759 104.812 50.4673C102.638 51.6586 99.0425 51.6879 96.7712 50.5454C94.4999 49.4029 94.4353 47.5084 96.6097 46.3171C98.7841 45.1257 102.379 45.0964 104.651 46.239ZM100.227 48.1432C99.9682 48.2799 99.979 48.5045 100.248 48.6412C100.517 48.7779 100.948 48.7779 101.206 48.6412C101.464 48.5045 101.454 48.2799 101.185 48.1432C100.915 48.0064 100.485 48.0064 100.227 48.1432Z" fill="#D6D6D6"/>
<g id="Group_98">
<path id="Vector_168" d="M112.67 68.1753L115.092 57.2773C114.705 58.83 113.391 60.3338 111.174 61.5545C105.62 64.5915 96.4052 64.6696 90.614 61.74C88.1274 60.4803 86.6742 58.8691 86.2651 57.1992L88.6333 68.1069C88.9778 69.4936 90.1834 70.8412 92.2609 71.8861C97.0941 74.3273 104.769 74.259 109.409 71.7298C111.26 70.7142 112.347 69.4643 112.681 68.1655L112.67 68.1753Z" fill="#BFBEED"/>
</g>
<path id="Vector_169" d="M109.011 45.7617C103.801 43.1935 96.9436 43.2813 91.9489 45.9668C93.1222 45.3223 94.7584 45.3809 96.6099 46.3086C98.7843 45.1172 102.38 45.0879 104.651 46.2304C106.922 47.373 106.987 49.2674 104.812 50.4588C102.638 51.6501 99.0427 51.6794 96.7714 50.5369C94.5001 49.3943 94.4355 47.4999 96.6099 46.3086C94.7692 45.3809 93.1222 45.3223 91.9489 45.9668C91.0017 46.5234 88.4613 48.0077 87.148 50.5955C85.7163 53.4078 85.9209 55.3609 86.2546 57.1186C86.6851 58.8568 88.1383 60.4681 90.6249 61.7278C96.4162 64.6573 105.62 64.5792 111.185 61.5422C113.413 60.3314 114.716 58.8275 115.103 57.2651C115.362 55.9956 115.846 53.6422 114.253 50.6345C113.219 48.6913 111.26 46.8652 109.011 45.7617Z" fill="#F4F4FB"/>
</g>
<g id="Group_99">
<g id="Group_100">
<path id="Vector_170" d="M110.141 55.3415C114.49 52.91 115.48 49.873 115.857 48.7305C115.394 50.2929 114.038 51.787 111.799 53.0174C105.975 56.2008 96.3304 56.2887 90.2701 53.2127C87.7619 51.9432 86.2549 50.332 85.7598 48.6523C86.0181 49.414 86.7932 51.7284 88.9353 53.5349C90.6145 54.9509 92.3045 56.0055 95.5231 56.8942C100.195 58.1734 106.201 57.5387 110.13 55.3415H110.141Z" fill="#E3E2F2"/>
</g>
<path id="Vector_171" d="M108.515 31.671C103.402 29.1516 97.6326 29.2395 92.6702 31.9053C91.4968 32.5987 90.3881 33.2529 88.8596 34.8154C87.7831 35.9188 86.7713 37.4617 86.373 38.3504C85.9209 39.3562 85.2427 40.8698 85.0597 42.8814C84.866 45.1079 85.1458 46.3188 85.5226 47.8519C86.0393 49.5999 87.5678 51.2306 90.1082 52.5197C96.2655 55.6347 106.05 55.5469 111.96 52.3146C114.231 51.0744 115.598 49.551 116.072 47.9691C116.373 46.7484 116.729 45.3618 116.621 43.6626C116.513 41.8463 116.147 40.2546 115.534 38.9363C114.802 37.3543 114.102 36.1825 112.531 34.5615C111.712 33.7217 110.227 32.5108 108.505 31.6612L108.515 31.671Z" fill="#EDECF8"/>
<path id="Vector_172" d="M95.6089 48.8483C95.6305 49.024 96.2871 53.2719 101.917 53.6527C105.684 53.6332 109.463 52.8032 112.251 51.2114C113.069 50.7427 113.747 50.2349 114.296 49.7076C117.913 45.4207 115.792 38.2921 112.197 38.9464C111.931 38.9919 111.537 39.1905 111.013 39.542C110.604 39.9424 110.087 40.3135 109.484 40.665C107.407 41.8564 104.586 42.4716 101.766 42.4814C97.2989 42.9696 95.2968 46.5535 95.6089 48.8385V48.8483Z" fill="#043299"/>
<g id="Group_101">
<path id="Vector_173" d="M115.857 48.7382L116.083 47.9766C115.609 49.5585 114.242 51.0819 111.971 52.3123C106.061 55.5348 96.2766 55.6325 90.1193 52.5174C87.5789 51.2284 86.0504 49.5976 85.5444 47.8984L85.7705 48.6601C86.2656 50.3397 87.7727 51.9412 90.2808 53.2107C96.3519 56.277 105.986 56.1891 111.81 53.0154C114.049 51.7947 115.394 50.3007 115.857 48.7382Z" fill="#E3E2F2"/>
</g>
<g id="Group_102">
<path id="Vector_174" d="M113.187 44.6977C113.812 46.1136 114.662 46.4261 115.114 45.4301C115.975 43.5161 114.404 40.4303 113.166 40.8209C113.026 40.86 112.94 40.9576 112.864 41.0357C112.272 41.9341 112.832 43.8969 113.187 44.7074V44.6977Z" fill="#05DCFF"/>
<path id="Vector_175" d="M101.217 48.088C101.4 50.2558 103.757 51.1738 105.157 49.6211C106.632 47.9805 105.415 44.9436 103.305 44.9729C101.723 45.1975 101.131 46.965 101.228 48.088H101.217Z" fill="#05DCFF"/>
<path id="Vector_176" d="M108.375 50.4691C108.634 51.8265 110.722 51.6116 111.809 50.1176C112.25 49.5121 112.337 48.9457 112.283 48.643C112.272 48.6332 112.261 48.643 112.25 48.643C111.099 49.307 109.775 49.8344 108.354 50.2347C108.354 50.2836 108.354 50.3519 108.375 50.4691Z" fill="#05DCFF"/>
</g>
</g>
<g id="Group_103">
<path id="Vector_177" d="M87.6221 59.3631C87.6221 58.2206 88.2895 56.9414 89.0968 56.5117L89.4628 56.3164C89.7857 56.1406 90.0871 56.1406 90.3347 56.2676C91.1959 56.7265 92.0247 57.498 92.6491 58.455C93.2626 59.3924 93.6932 60.5154 93.6502 61.7751C93.6286 62.029 93.4779 62.2439 93.1658 62.4099L92.7998 62.6052C91.9924 63.0349 90.4424 62.8688 89.3444 62.2439C89.4198 61.199 88.6124 59.8905 87.6113 59.3631H87.6221Z" fill="#F4F4FB"/>
<g id="Group_104">
<g id="Group_105">
<path id="Vector_178" d="M91.4973 80.9218C91.5511 80.8925 91.6373 80.8437 91.6911 80.8144C91.788 80.746 91.9064 80.6679 91.9925 80.5898C92.2401 80.3456 92.2939 80.287 92.4876 79.9746C92.5415 79.8769 92.6599 79.6328 92.7137 79.457C92.7783 79.2324 92.8106 79.1347 92.8429 78.7539C92.8213 79.0078 92.6706 79.2324 92.3585 79.3984C92.3046 80.1503 91.9925 80.6777 91.4973 80.9315V80.9218Z" fill="#BFBEED"/>
<g id="Clip path group_14">
<mask id="mask13_20_10579" style="mask-type:luminance" maskUnits="userSpaceOnUse" x="91" y="78" width="2" height="3">
<g id="clippath-13">
<path id="Vector_179" d="M91.4976 80.9218C91.5514 80.8925 91.6375 80.8437 91.6913 80.8144C91.7882 80.746 91.9066 80.6679 91.9927 80.5898C92.2403 80.3456 92.2941 80.287 92.4879 79.9746C92.5417 79.8769 92.6601 79.6328 92.7139 79.457C92.7785 79.2324 92.8108 79.1347 92.8431 78.7539C92.8216 79.0078 92.6709 79.2324 92.3587 79.3984C92.3049 80.1503 91.9927 80.6777 91.4976 80.9315V80.9218Z" fill="white"/>
</g>
</mask>
<g mask="url(#mask13_20_10579)">
<g id="Group_106">
<g id="Group_107">
<path id="Vector_180" d="M91.4968 80.9237C92.3257 80.4355 92.7455 79.7617 92.8424 78.7461C92.8208 79 92.6701 79.2246 92.358 79.3906C92.3042 80.1425 91.992 80.6698 91.4968 80.9237Z" fill="#BFBEED"/>
</g>
</g>
</g>
</g>
</g>
<g id="Group_108">
<path id="Vector_181" d="M91.1311 81.1171L91.4971 80.9218C91.9815 80.6679 92.3044 80.1406 92.3582 79.3887L91.9923 79.584C91.9384 80.3359 91.6263 80.8632 91.1311 81.1171Z" fill="#BFBEED"/>
<g id="Clip path group_15">
<mask id="mask14_20_10579" style="mask-type:luminance" maskUnits="userSpaceOnUse" x="91" y="79" width="2" height="3">
<g id="clippath-14">
<path id="Vector_182" d="M91.1309 81.121L91.4968 80.9257C91.9812 80.6718 92.3042 80.1445 92.358 79.3926L91.992 79.5879C91.9382 80.3398 91.626 80.8671 91.1309 81.121Z" fill="white"/>
</g>
</mask>
<g mask="url(#mask14_20_10579)">
<g id="Group_109">
<g id="Group_110">
<path id="Vector_183" d="M91.1309 81.121L91.4968 80.9257C91.9812 80.6718 92.3042 80.1445 92.358 79.3926L91.992 79.5879C91.9382 80.3398 91.626 80.8671 91.1309 81.121Z" fill="#BFBEED"/>
</g>
</g>
</g>
</g>
</g>
<g id="Group_111">
<g id="Group_112">
<path id="Vector_184" d="M85.5769 77.1484C85.8353 80.0487 88.8923 82.2361 91.1313 81.1131C91.6157 80.8592 91.9387 80.3319 91.9925 79.58C91.1852 80.0096 89.6351 79.8241 88.5371 79.1796C88.5048 79.6971 88.0742 79.8925 87.5576 79.619C87.0409 79.3456 86.6211 78.7109 86.5888 78.1933C85.9537 77.8906 85.5984 77.5 85.5877 77.1484H85.5769Z" fill="#98A4E0"/>
</g>
</g>
<g id="Group_113">
<path id="Vector_185" d="M86.5885 78.1964L85.878 60.375C85.2322 60.082 84.8877 59.7012 84.877 59.3496L84.9092 60.2382L84.9415 61.1269L84.9738 62.0155L85.0061 62.9041L85.0384 63.7928L85.0707 64.6814L85.103 65.57L85.1353 66.4587L85.1676 67.3473L85.1999 68.2359L85.2322 69.1246L85.2645 70.0132L85.2968 70.9018L85.3291 71.7905L85.3614 72.6791L85.3936 73.5677L85.4259 74.4563L85.4582 75.345L85.4905 76.2336L85.5228 77.1222C85.5336 77.4836 85.8888 77.8742 86.5239 78.1769L86.5885 78.1964Z" fill="#98A4E0"/>
</g>
<g id="Group_114">
<g id="Group_115">
<path id="Vector_186" d="M93.1762 62.4004L92.3582 79.382C92.6703 79.216 92.8318 78.9914 92.8426 78.7277L92.8856 77.8782L92.9287 77.0286L92.9717 76.179L93.0148 75.3295L93.0578 74.4799L93.1009 73.6303L93.144 72.7807L93.187 71.9312L93.2301 71.0816L93.2731 70.232L93.3162 69.3825L93.3592 68.5329L93.4023 67.6833L93.4454 66.8338L93.4884 65.9842L93.5315 65.1346L93.5745 64.285L93.6176 63.4355L93.6606 62.5859L93.7037 61.7363C93.6929 61.9902 93.5315 62.2148 93.2193 62.3808L93.1762 62.4004Z" fill="#E3E2F2"/>
</g>
</g>
<g id="Group_116">
<path id="Vector_187" d="M89.4302 56.291C89.4302 56.291 89.4733 56.291 89.4948 56.291C89.807 56.1347 90.0976 56.1347 90.3345 56.2519C90.2483 56.2129 90.1299 56.1543 90.0331 56.1055C89.9146 56.0566 89.7532 55.9883 89.6348 55.9492L89.3441 55.8613C89.215 55.832 89.032 55.793 88.9028 55.7637L88.6122 55.7246C88.4722 55.7246 88.2785 55.7148 88.1385 55.7148L87.8586 55.7344C87.7187 55.7539 87.5249 55.793 87.385 55.832L87.1267 55.9199C87.0298 55.959 86.8898 56.0176 86.793 56.0664C87.4604 55.7148 88.3861 55.7539 89.4195 56.291H89.4302Z" fill="#E3E2F2"/>
</g>
<path id="Vector_188" d="M91.9924 79.5813L92.3584 79.386L93.1765 62.4043L92.7998 62.5996L91.9924 79.5813Z" fill="#E3E2F2"/>
<g id="Group_117">
<path id="Vector_189" d="M89.0968 56.5066L89.4951 56.2918C88.4617 55.7644 87.4714 55.7156 86.804 56.0769L86.438 56.2722C87.1054 55.9207 88.0311 55.9597 89.0645 56.4968L89.0968 56.5164V56.5066Z" fill="#BFBEED"/>
</g>
<path id="Vector_190" d="M87.622 59.3598C86.6209 58.8325 85.8135 59.3012 85.8781 60.3754C86.115 66.3419 86.3518 72.2694 86.5886 78.1969C86.6209 78.7144 87.0407 79.3492 87.5574 79.6226C88.0741 79.896 88.5047 79.7007 88.5369 79.1832C88.8061 73.5584 89.0752 67.8946 89.355 62.2406C89.4304 61.1957 88.6231 59.8872 87.622 59.3598Z" fill="#BFBEED"/>
<g id="Group_118">
<path id="Vector_191" d="M89.3442 62.2305L88.5261 79.1731C89.6241 79.8176 91.1742 80.0031 91.9815 79.5734L92.7996 62.5918C91.9923 63.0214 90.4422 62.8554 89.3442 62.2305Z" fill="#E3E2F2"/>
</g>
<path id="Vector_192" d="M93.65 61.7699C93.65 61.6722 93.65 61.5551 93.65 61.4574C93.65 61.3402 93.65 61.1937 93.6285 61.0766C93.607 60.891 93.5639 60.6371 93.5316 60.4516C93.5101 60.3442 93.467 60.2075 93.4455 60.1C93.3917 59.8852 93.2087 59.3091 92.7781 58.606C92.4444 58.0494 92.0138 57.5611 91.7555 57.3072C91.5079 57.0728 91.0666 56.6432 90.3238 56.2526C90.0762 56.1256 89.7748 56.1354 89.4519 56.3014C91.6048 57.4342 93.3056 60.227 93.1656 62.3949C93.4778 62.2289 93.6285 62.014 93.65 61.7601V61.7699Z" fill="#F4F4FB"/>
<path id="Vector_193" d="M89.3444 62.2322C90.4424 62.8571 91.9924 63.0231 92.7998 62.5935C92.9397 60.4256 91.2389 57.6328 89.0861 56.5C88.2787 56.9297 87.6113 58.1991 87.6113 59.3514C88.6124 59.869 89.409 61.1873 89.3444 62.2322Z" fill="#F4F4FB"/>
<path id="Vector_194" d="M84.877 58.841C84.877 58.714 84.8985 58.5382 84.9308 58.4113C85.0277 57.9328 85.1353 57.6887 85.2429 57.4738C85.3075 57.3469 85.4044 57.1906 85.4905 57.0832C85.5874 56.9563 85.7273 56.8098 85.835 56.6926C85.9319 56.595 86.0933 56.4778 86.2117 56.3997C86.2763 56.3508 86.3732 56.302 86.4378 56.263C87.116 55.9016 88.0525 55.9505 89.0966 56.4973C88.2893 56.927 87.6219 58.1965 87.6219 59.3487C86.6208 58.8214 85.8135 59.2902 85.878 60.3643C85.2429 60.0714 84.8985 59.7003 84.877 59.3487C84.877 59.1925 84.877 58.9874 84.877 58.8312V58.841Z" fill="#BFBEED"/>
</g>
<path id="Vector_195" d="M87.6218 59.3627C87.6218 58.4838 88.0093 57.5366 88.5476 56.9409C88.5476 56.9507 88.5476 56.9702 88.5476 56.9897C88.5691 57.2632 88.7629 57.6245 88.9243 57.8784C88.9997 57.9858 89.075 58.103 89.1504 58.2104C89.3764 58.5522 89.6025 58.894 89.8285 59.2357C90.1084 59.6556 90.3883 60.0755 90.6682 60.5052C90.8942 60.847 91.1203 61.1888 91.3463 61.5403C91.4109 61.638 91.4647 61.7259 91.5293 61.8235C91.7123 62.0774 92.1644 62.2044 92.4873 62.1848C92.778 62.1653 93.0686 62.0481 93.2624 61.843C93.3485 61.7552 93.3593 61.6087 93.3808 61.5013C93.4131 61.3548 93.4238 61.1985 93.4238 61.0423C93.4238 60.7982 93.3916 60.554 93.3485 60.3099C93.2947 60.0462 93.2086 59.7826 93.1117 59.5385C93.004 59.2748 92.8856 59.0111 92.7349 58.7572C92.5842 58.5033 92.4228 58.2495 92.2398 58.0151C92.0568 57.7807 91.863 57.5659 91.6477 57.3608C91.4432 57.1655 91.2171 56.98 90.9803 56.8237C90.7543 56.6773 90.5175 56.5503 90.2591 56.4527C90.0115 56.3648 89.7532 56.3062 89.4948 56.2867C89.807 56.1304 90.0976 56.1304 90.3345 56.2476C90.4421 56.3062 90.582 56.3843 90.6897 56.4429L90.9696 56.6284C91.0557 56.6968 91.1741 56.7847 91.2602 56.853L91.5185 57.0679C91.5939 57.1362 91.6908 57.2339 91.7769 57.3022L92.0029 57.5464C92.0675 57.6245 92.1536 57.7221 92.2182 57.8003L92.4228 58.0639C92.4873 58.142 92.5519 58.2495 92.6165 58.3276L92.7887 58.601C92.8426 58.6889 92.9072 58.7963 92.9502 58.8842L93.1009 59.1771C93.144 59.265 93.1978 59.392 93.2409 59.4799L93.3593 59.7826C93.3916 59.8802 93.4346 60.0072 93.4669 60.1048L93.5423 60.4173C93.5638 60.5247 93.5853 60.6615 93.6068 60.7689L93.6499 61.0814C93.6499 61.1985 93.6607 61.345 93.6714 61.4622C93.6714 61.5599 93.6714 61.677 93.6714 61.7747C93.6499 62.0286 93.4992 62.2434 93.187 62.4094L92.821 62.6047C92.0137 63.0344 90.4636 62.8684 89.3657 62.2434C89.441 61.1985 88.6337 59.89 87.6326 59.3627H87.6218Z" fill="#E3E2F2"/>
</g>
<g id="Group_119">
<g id="Group_120">
<g id="Group_121">
<g id="Group_122">
<path id="Vector_196" d="M86.0828 41.0931L83.833 42.2844C84.791 41.7767 86.1258 41.845 87.5898 42.6165L89.8395 41.4251C88.3756 40.6537 87.0408 40.5853 86.0828 41.0931Z" fill="#1499FC"/>
<g id="Clip path group_16">
<mask id="mask15_20_10579" style="mask-type:luminance" maskUnits="userSpaceOnUse" x="83" y="40" width="7" height="3">
<g id="clippath-15">
<path id="Vector_197" d="M86.083 41.0892L83.8333 42.2805C84.7913 41.7727 86.1261 41.8411 87.59 42.6126L89.8398 41.4212C88.3758 40.6498 87.041 40.5814 86.083 41.0892Z" fill="white"/>
</g>
</mask>
<g mask="url(#mask15_20_10579)">
<g id="Group_123">
<g id="Group_124">
<path id="Vector_198" d="M87.6005 42.6067L89.8503 41.4153C88.3863 40.6439 87.0515 40.5755 86.0935 41.0833L83.8438 42.2747C84.8018 41.7669 86.1366 41.8352 87.6005 42.6067Z" fill="#1499FC"/>
</g>
</g>
</g>
</g>
</g>
<g id="Group_125">
<path id="Vector_199" d="M91.3248 53.9643L93.5746 52.7729C94.5219 52.2749 95.1139 51.2105 95.1139 49.6969C95.1139 46.6502 92.7673 42.9394 89.8501 41.416L87.6003 42.6074C90.5175 44.1405 92.8749 47.8415 92.8641 50.8882C92.8641 52.4018 92.2721 53.4663 91.3248 53.9643Z" fill="#1499FC"/>
<g id="Clip path group_17">
<mask id="mask16_20_10579" style="mask-type:luminance" maskUnits="userSpaceOnUse" x="87" y="41" width="9" height="13">
<g id="clippath-16">
<path id="Vector_200" d="M91.3243 53.9604L93.5741 52.769C94.5214 52.271 95.1134 51.2066 95.1134 49.693C95.1134 46.6462 92.7668 42.9355 89.8496 41.4121L87.5999 42.6035C90.517 44.1366 92.8744 47.8376 92.8637 50.8843C92.8637 52.3979 92.2716 53.4623 91.3243 53.9604Z" fill="white"/>
</g>
</mask>
<g mask="url(#mask16_20_10579)">
<g id="Group_126">
<g id="Group_127">
<path id="Vector_201" d="M91.3243 53.9604L93.5741 52.769C94.5214 52.271 95.1134 51.2066 95.1134 49.693C95.1134 46.6462 92.7668 42.9355 89.8496 41.4121L87.5999 42.6035C90.517 44.1366 92.8744 47.8376 92.8637 50.8843C92.8637 52.3979 92.2716 53.4623 91.3243 53.9604Z" fill="#1499FC"/>
</g>
</g>
</g>
</g>
</g>
<path id="Vector_202" d="M87.6003 42.607C84.6832 41.0738 82.3042 42.3043 82.2935 45.351C82.2935 48.388 84.6401 52.0987 87.5573 53.6319C90.4744 55.165 92.8533 53.9346 92.8641 50.8879C92.8641 47.8411 90.5175 44.1303 87.6003 42.607Z" fill="#021B74"/>
</g>
<g id="Group_128">
<g id="Group_129">
<path id="Vector_203" d="M84.5645 43.7453L83.811 44.1359C84.5753 43.7355 85.6195 43.7941 86.782 44.3996L87.5355 44.009C86.373 43.4035 85.318 43.3449 84.5645 43.7453Z" fill="#E3E2F2"/>
<g id="Clip path group_18">
<mask id="mask17_20_10579" style="mask-type:luminance" maskUnits="userSpaceOnUse" x="83" y="43" width="5" height="2">
<g id="clippath-17">
<path id="Vector_204" d="M84.5645 43.7473L83.811 44.1379C84.5753 43.7375 85.6195 43.7961 86.782 44.4015L87.5355 44.0109C86.373 43.4055 85.318 43.3469 84.5645 43.7473Z" fill="white"/>
</g>
</mask>
<g mask="url(#mask17_20_10579)">
<g id="Group_130">
<g id="Group_131">
<path id="Vector_205" d="M86.7932 44.4015L87.5468 44.0109C86.3842 43.4055 85.3293 43.3469 84.5758 43.7473L83.8223 44.1379C84.5865 43.7375 85.6307 43.7961 86.7932 44.4015Z" fill="#E3E2F2"/>
</g>
</g>
</g>
</g>
</g>
<g id="Group_132">
<path id="Vector_206" d="M89.7427 53.3922L90.4962 53.0015C91.2497 52.6012 91.7125 51.7614 91.7125 50.57C91.7125 48.158 89.8503 45.2285 87.5467 44.0176L86.7932 44.4082C89.1076 45.6191 90.9698 48.5486 90.9698 50.9606C90.9698 52.152 90.4962 53.0015 89.7534 53.3922H89.7427Z" fill="#E3E2F2"/>
<g id="Clip path group_19">
<mask id="mask18_20_10579" style="mask-type:luminance" maskUnits="userSpaceOnUse" x="86" y="44" width="6" height="10">
<g id="clippath-18">
<path id="Vector_207" d="M89.7427 53.3941L90.4962 53.0035C91.2497 52.6031 91.7125 51.7633 91.7125 50.572C91.7125 48.16 89.8503 45.2304 87.5467 44.0195L86.7932 44.4101C89.1076 45.621 90.9698 48.5506 90.9698 50.9626C90.9698 52.1539 90.4962 53.0035 89.7534 53.3941H89.7427Z" fill="white"/>
</g>
</mask>
<g mask="url(#mask18_20_10579)">
<g id="Group_133">
<g id="Group_134">
<path id="Vector_208" d="M89.7427 53.3941L90.4962 53.0035C91.2497 52.6031 91.7125 51.7633 91.7125 50.572C91.7125 48.16 89.8503 45.2304 87.5467 44.0195L86.7932 44.4101C89.1076 45.621 90.9698 48.5506 90.9698 50.9626C90.9698 52.1539 90.4962 53.0035 89.7534 53.3941H89.7427Z" fill="#E3E2F2"/>
</g>
</g>
</g>
</g>
</g>
<path id="Vector_209" d="M86.7931 44.3991C84.4895 43.1882 82.6057 44.1647 82.595 46.567C82.595 48.9692 84.4572 51.9085 86.7608 53.1194C89.0751 54.3303 90.9482 53.3538 90.9589 50.9515C90.9589 48.5395 89.0967 45.61 86.7823 44.3991H86.7931Z" fill="#98A4E0"/>
</g>
<g id="Group_135">
<g id="Group_136">
<path id="Vector_210" d="M84.5645 43.7453L83.811 44.1359C84.5753 43.7355 85.6195 43.7941 86.782 44.3996L87.5355 44.009C86.373 43.4035 85.318 43.3449 84.5645 43.7453Z" fill="#E3E2F2"/>
<g id="Clip path group_20">
<mask id="mask19_20_10579" style="mask-type:luminance" maskUnits="userSpaceOnUse" x="83" y="43" width="5" height="2">
<g id="clippath-19">
<path id="Vector_211" d="M84.5645 43.7473L83.811 44.1379C84.5753 43.7375 85.6195 43.7961 86.782 44.4015L87.5355 44.0109C86.373 43.4055 85.318 43.3469 84.5645 43.7473Z" fill="white"/>
</g>
</mask>
<g mask="url(#mask19_20_10579)">
<g id="Group_137">
<g id="Group_138">
<path id="Vector_212" d="M86.7932 44.4015L87.5468 44.0109C86.3842 43.4055 85.3293 43.3469 84.5758 43.7473L83.8223 44.1379C84.5865 43.7375 85.6307 43.7961 86.7932 44.4015Z" fill="#E3E2F2"/>
</g>
</g>
</g>
</g>
</g>
<g id="Group_139">
<path id="Vector_213" d="M89.7427 53.3922L90.4962 53.0015C91.2497 52.6012 91.7125 51.7614 91.7125 50.57C91.7125 48.158 89.8503 45.2285 87.5467 44.0176L86.7932 44.4082C89.1076 45.6191 90.9698 48.5486 90.9698 50.9606C90.9698 52.152 90.4962 53.0015 89.7534 53.3922H89.7427Z" fill="#E3E2F2"/>
<g id="Clip path group_21">
<mask id="mask20_20_10579" style="mask-type:luminance" maskUnits="userSpaceOnUse" x="86" y="44" width="6" height="10">
<g id="clippath-20">
<path id="Vector_214" d="M89.7427 53.3941L90.4962 53.0035C91.2497 52.6031 91.7125 51.7633 91.7125 50.572C91.7125 48.16 89.8503 45.2304 87.5467 44.0195L86.7932 44.4101C89.1076 45.621 90.9698 48.5506 90.9698 50.9626C90.9698 52.1539 90.4962 53.0035 89.7534 53.3941H89.7427Z" fill="white"/>
</g>
</mask>
<g mask="url(#mask20_20_10579)">
<g id="Group_140">
<g id="Group_141">
<path id="Vector_215" d="M89.7427 53.3941L90.4962 53.0035C91.2497 52.6031 91.7125 51.7633 91.7125 50.572C91.7125 48.16 89.8503 45.2304 87.5467 44.0195L86.7932 44.4101C89.1076 45.621 90.9698 48.5506 90.9698 50.9626C90.9698 52.1539 90.4962 53.0035 89.7534 53.3941H89.7427Z" fill="#E3E2F2"/>
</g>
</g>
</g>
</g>
</g>
<path id="Vector_216" d="M86.7931 44.3991C84.4895 43.1882 82.6057 44.1647 82.595 46.567C82.595 48.9692 84.4572 51.9085 86.7608 53.1194C89.0751 54.3303 90.9482 53.3538 90.9589 50.9515C90.9589 48.5395 89.0967 45.61 86.7823 44.3991H86.7931Z" fill="#98A4E0"/>
<path id="Vector_217" d="M86.7826 45.6187C85.1249 44.7496 83.7686 45.4429 83.7686 47.1811C83.7686 48.9096 85.1033 51.0286 86.7718 51.8977C88.4403 52.7668 89.7859 52.0637 89.7966 50.3353C89.7966 48.5971 88.4618 46.4878 86.7934 45.6187H86.7826Z" fill="#05DCFF"/>
</g>
</g>
<g id="Group_142">
<path id="Vector_218" d="M104.447 28.6464C103.597 28.1484 102.563 27.875 101.401 27.8652C100.217 27.8652 98.8928 28.1191 97.4719 28.6953C96.1801 29.2226 94.9099 29.955 93.7366 30.8534C93.5967 30.9608 93.4675 31.0584 93.3276 31.1659C92.0681 32.1717 90.9163 33.3533 89.9152 34.6325C89.3663 35.3258 88.8711 36.0582 88.4298 36.8101C87.1703 38.9292 87.1488 39.271 86.9766 41.4291L90.3781 43.4309C90.6472 41.9662 90.5719 40.9311 91.8313 38.812C92.2727 38.0699 92.7786 37.3375 93.3168 36.6441C94.3179 35.3649 95.4697 34.1833 96.7291 33.1775C96.8583 33.0701 96.9982 32.9627 97.1382 32.865C98.3223 31.9764 99.5817 31.2342 100.873 30.7069C102.284 30.1405 103.608 29.8671 104.802 29.8769C105.61 29.8769 107.59 30.5018 107.849 30.6581L104.447 28.6562V28.6464Z" fill="#1499FC"/>
<path id="Vector_219" d="M90.3889 43.4196C90.5934 42.0622 90.5827 40.9197 91.8421 38.8006C93.1015 36.6816 94.8023 34.709 96.7399 33.1564C98.0316 32.1212 99.4418 31.2717 100.884 30.6858C102.294 30.1194 103.618 29.846 104.813 29.8557C104.813 29.8557 105.082 30.0413 105.168 30.1291C105.276 30.2463 105.373 30.3733 105.47 30.51C105.168 30.4612 104.867 30.4416 104.544 30.4416C103.425 30.4416 102.176 30.6858 100.852 31.2228C99.4848 31.7795 98.1716 32.5704 96.9552 33.547C95.7388 34.5235 94.8561 35.5391 93.8873 36.7988C91.9498 39.3084 91.2824 40.8416 90.981 43.1852L90.4104 43.4196H90.3889Z" fill="#021B74"/>
<path id="Vector_220" d="M107.806 30.6204C106.32 29.8977 105.039 29.8489 104.802 29.8684C104.91 29.9466 105.341 30.4055 105.459 30.5227C106.858 30.6399 110.669 32.8371 112.348 34.3702C112.198 33.5401 110.68 32.007 107.795 30.6204H107.806Z" fill="#021B74"/>
</g>
</g>
<g id="Group_143">
<path id="Vector_221" d="M112.025 55.0191C111.971 55.0191 111.917 54.9898 111.885 54.9409C111.842 54.8726 111.885 54.7847 111.949 54.7456C114.425 53.5641 116.32 51.2497 116.998 48.5643C117.235 47.6073 117.267 46.2011 117.084 44.8144C117.084 44.7363 117.138 44.668 117.224 44.6582C117.31 44.6582 117.385 44.707 117.396 44.7852C117.59 46.2109 117.547 47.6464 117.299 48.6326C116.6 51.4059 114.651 53.7887 112.089 55.0093C112.068 55.0191 112.035 55.0288 112.014 55.0288L112.025 55.0191Z" fill="#010958"/>
<path id="Vector_222" d="M109.635 55.9571C110.055 56.6211 111.282 56.6895 112.369 56.1133C113.457 55.5469 114.006 54.5411 113.586 53.8868C113.166 53.2228 111.939 53.1545 110.852 53.7306C109.764 54.3067 109.215 55.3028 109.635 55.9571Z" fill="#010958"/>
</g>
</g>
<g id="VR front">
<g id="Group_144">
<g id="Group_145">
<g id="Group_146">
<path id="Vector_223" opacity="0.4" d="M73.8423 58.3594C69.8272 61.328 67.825 64.8239 67.8357 68.3101L67.8573 76.5129C67.8465 73.0267 69.8487 69.5307 73.8638 66.5621L73.8423 58.3594Z" fill="#98A4E0"/>
<path id="Vector_224" opacity="0.5" d="M132.853 53.2792C132.853 52.5859 132.766 51.9023 132.605 51.209V55.6424C132.777 56.3259 132.863 57.0193 132.863 57.7126C132.863 56.2381 132.863 54.7537 132.853 53.2792Z" fill="#98A4E0"/>
</g>
</g>
<g id="Group_147">
<g id="Group_148">
<path id="Vector_225" opacity="0.5" d="M123.575 84.7611C128.828 81.9487 131.863 78.4235 132.681 74.7811V70.6797C132.358 72.0663 131.723 73.4432 130.765 74.7615V70.6602C129.194 72.8085 126.793 74.8201 123.542 76.5583L123.564 84.7611H123.575Z" fill="#98A4E0"/>
<path id="Vector_226" opacity="0.5" d="M130.733 66.3728C132.164 64.4002 132.875 62.3105 132.864 60.2305L132.886 68.6188C132.886 69.3023 132.81 69.9957 132.659 70.6792V66.5778C132.337 67.9645 131.701 69.3414 130.743 70.6597V66.3728H130.733Z" fill="#98A4E0"/>
<path id="Vector_227" opacity="0.75" d="M130.765 74.7613C131.723 73.443 132.358 72.0662 132.67 70.6795V66.5781C132.348 67.9648 131.712 69.3417 130.754 70.66V74.7613H130.765Z" fill="#98A4E0"/>
<path id="Vector_228" opacity="0.5" d="M129.732 60.6403C131.82 58.3162 132.864 55.7968 132.853 53.2773C132.853 53.9804 132.853 54.9179 132.853 55.6112C132.853 56.246 132.853 57.0858 132.853 57.7107C132.853 60.2302 131.82 62.7496 129.732 65.0737V60.6403Z" fill="#98A4E0"/>
<path id="Vector_229" opacity="0.5" d="M71.8083 57.193C69.72 54.8689 68.6758 52.3495 68.6866 49.8301C68.6866 50.5332 68.6866 51.4706 68.6866 52.164C68.6866 52.7987 68.6866 53.6385 68.6866 54.2635C68.6866 56.7829 69.72 59.3023 71.8083 61.6264V57.193Z" fill="#98A4E0"/>
</g>
</g>
<g id="Group_149">
<g id="Group_150">
<path id="Vector_230" opacity="0.5" d="M67.8354 68.3047C67.8354 68.4805 67.8354 68.6465 67.857 68.8222L67.8785 77.025C67.8785 76.8492 67.8677 76.6832 67.857 76.5074L67.8354 68.3047Z" fill="#98A4E0"/>
<path id="Vector_231" opacity="0.5" d="M70.2684 71.3902C71.1941 72.5718 72.3889 73.7144 73.8421 74.7885V72.0347C74.8432 72.7769 75.9843 73.4898 77.2545 74.1538C81.2696 76.2728 86.1028 77.7181 91.2267 78.4895V81.2433C101.636 82.8058 113.272 81.6046 121.851 77.6107L121.83 69.2224C109.031 75.1694 89.429 74.935 77.2437 68.5095C74.1543 66.8787 71.8184 65.0038 70.2468 62.9922L70.2684 71.3805V71.3902Z" fill="#98A4E0"/>
<path id="Vector_232" opacity="0.75" d="M73.8423 72.0254C74.8541 72.7675 75.9952 73.4804 77.2546 74.1444C81.2697 76.2635 86.103 77.7087 91.2268 78.4802V81.234L91.2483 86.6829C86.1245 85.9115 81.2913 84.4662 77.2761 82.3472C76.0059 81.6832 74.8757 80.9703 73.8638 80.2281L73.8423 74.7792V72.0254Z" fill="#98A4E0"/>
<g id="Group_151">
<g id="Group_152">
<path id="Vector_233" opacity="0.5" d="M132.852 53.2772C132.852 52.5839 132.766 51.9004 132.604 51.207V55.6404C132.777 56.324 132.863 57.0173 132.863 57.7106C132.863 56.2361 132.863 54.7518 132.852 53.2772Z" fill="#98A4E0"/>
</g>
<g id="Group_153">
<g id="Group_154">
<path id="Vector_234" opacity="0.5" d="M76.4248 60.8259C77.4367 61.5681 78.5777 62.2809 79.8372 62.945C83.8523 65.064 88.6855 66.5093 93.8094 67.2807L93.7878 61.8317C88.664 61.0603 83.8308 59.615 79.8156 57.496C78.5454 56.832 77.4152 56.1191 76.4033 55.377L76.4248 60.8259Z" fill="#98A4E0"/>
<path id="Vector_235" opacity="0.5" d="M67.835 68.3066C67.835 68.4824 67.835 68.6484 67.8565 68.8242L67.878 77.027C67.878 76.8512 67.8673 76.6852 67.8565 76.5094L67.835 68.3066Z" fill="#98A4E0"/>
<path id="Vector_236" opacity="0.5" d="M70.2674 71.3922C71.1931 72.5738 72.388 73.7163 73.8412 74.7905V72.0367C74.8423 72.7789 75.9833 73.4917 77.2535 74.1557C81.2686 76.2748 86.1018 77.72 91.2257 78.4915V81.2453C101.635 82.8077 113.271 81.6066 121.85 77.6126L121.829 69.2243C109.03 75.1713 89.428 74.937 77.2427 68.5115C74.1533 66.8807 71.8175 65.0058 70.2458 62.9941L70.2674 71.3824V71.3922Z" fill="#98A4E0"/>
<path id="Vector_237" opacity="0.5" d="M105.101 90.1207C111.162 89.652 117.007 88.2751 121.883 86.0193V81.5078C116.996 83.7733 111.14 85.1405 105.091 85.6092V90.1207H105.101Z" fill="#98A4E0"/>
</g>
</g>
</g>
<path id="Vector_238" opacity="0.5" d="M105.102 90.1207C111.162 89.652 117.008 88.2751 121.884 86.0193V81.5078C116.997 83.7733 111.141 85.1405 105.091 85.6092V90.1207H105.102Z" fill="#98A4E0"/>
</g>
</g>
</g>
</g>
</g>
</g>
<defs>
<filter id="filter0_f_20_10579" x="0.126221" y="49.7812" width="193.843" height="120.516" filterUnits="userSpaceOnUse" color-interpolation-filters="sRGB">
<feFlood flood-opacity="0" result="BackgroundImageFix"/>
<feBlend mode="normal" in="SourceGraphic" in2="BackgroundImageFix" result="shape"/>
<feGaussianBlur stdDeviation="10" result="effect1_foregroundBlur_20_10579"/>
</filter>
</defs>
</svg>
